<?xml version="1.0" encoding="UTF-8" standalone="no"?><svg xmlns="http://www.w3.org/2000/svg" xmlns:xlink="http://www.w3.org/1999/xlink" contentScriptType="application/ecmascript" contentStyleType="text/css" height="562px" preserveAspectRatio="none" style="width:738px;height:562px;" version="1.1" viewBox="0 0 738 562" width="738px" zoomAndPan="magnify"><defs><filter height="300%" id="f8f0e72" width="300%" x="-1" y="-1"><feGaussianBlur result="blurOut" stdDeviation="2.0"/><feColorMatrix in="blurOut" result="blurOut2" type="matrix" values="0 0 0 0 0 0 0 0 0 0 0 0 0 0 0 0 0 0 .4 0"/><feOffset dx="4.0" dy="4.0" in="blurOut2" result="blurOut3"/><feBlend in="SourceGraphic" in2="blurOut3" mode="normal"/></filter></defs><g><text fill="#000000" font-family="sans-serif" font-size="18" lengthAdjust="spacingAndGlyphs" textLength="128" x="309.5" y="18.6855">Qloud Simulator</text><text fill="#000000" font-family="sans-serif" font-size="18" lengthAdjust="spacingAndGlyphs" textLength="203" x="272" y="41.3262">Entity Relationship Model</text><text fill="#000000" font-family="sans-serif" font-size="18" lengthAdjust="spacingAndGlyphs" textLength="0" x="376" y="63.9668"/><!--class Session--><rect fill="#FEFECE" filter="url(#f8f0e72)" height="109.1797" style="stroke: #A80036; stroke-width: 1.5;" width="78" x="6" y="76.4219"/><ellipse cx="21" cy="92.4219" fill="#FFAAAA" rx="11" ry="11" style="stroke: #A80036; stroke-width: 1.0;"/><path d="M19.8594,93.2188 L19.8594,95.7188 L24.1875,95.7188 L24.1875,94.7969 Q24.1875,94.1875 24.4297,93.9219 Q24.6719,93.6563 25.0469,93.6563 Q25.4219,93.6563 25.6563,93.9219 Q25.8906,94.1875 25.8906,94.7969 L25.8906,97.4219 L17.8906,97.4219 Q17.2656,97.4219 17.0078,97.1875 Q16.75,96.9531 16.75,96.5625 Q16.75,96.1875 17.0156,95.9531 Q17.2813,95.7188 17.8906,95.7188 L18.1563,95.7188 L18.1563,89.0625 L17.8906,89.0625 Q17.2656,89.0625 17.0078,88.8281 Q16.75,88.5938 16.75,88.2031 Q16.75,87.8281 17.0078,87.5938 Q17.2656,87.3594 17.8906,87.3594 L25.5156,87.3594 L25.5156,89.9531 Q25.5156,90.5625 25.2891,90.8203 Q25.0625,91.0781 24.6719,91.0781 Q24.2969,91.0781 24.0625,90.8203 Q23.8281,90.5625 23.8281,89.9531 L23.8281,89.0625 L19.8594,89.0625 L19.8594,91.5156 L21.3438,91.5156 Q21.3438,90.8594 21.4688,90.6719 Q21.7344,90.2656 22.2031,90.2656 Q22.5781,90.2656 22.8125,90.5234 Q23.0469,90.7813 23.0469,91.3906 L23.0469,93.3594 Q23.0469,93.9063 22.9219,94.0938 Q22.6563,94.4844 22.2031,94.4844 Q21.7344,94.4844 21.4688,94.0781 Q21.3438,93.8906 21.3438,93.2188 L19.8594,93.2188 Z "/><text fill="#000000" font-family="sans-serif" font-size="12" lengthAdjust="spacingAndGlyphs" textLength="46" x="35" y="97.332">Session</text><line style="stroke: #A80036; stroke-width: 1.5;" x1="7" x2="83" y1="108.4219" y2="108.4219"/><text fill="#000000" font-family="sans-serif" font-size="11" lengthAdjust="spacingAndGlyphs" text-decoration="underline" textLength="14" x="12" y="123.8408">sid</text><line style="stroke: #000000; stroke-width: 1.0;" x1="12" x2="26" y1="125.8408" y2="125.8408"/><text fill="#000000" font-family="sans-serif" font-size="11" lengthAdjust="spacingAndGlyphs" textLength="32" x="12" y="137.6768">server</text><text fill="#000000" font-family="sans-serif" font-size="11" lengthAdjust="spacingAndGlyphs" textLength="35" x="12" y="151.5127">partner</text><text fill="#000000" font-family="sans-serif" font-size="11" lengthAdjust="spacingAndGlyphs" textLength="17" x="12" y="165.3486">key</text><text fill="#000000" font-family="sans-serif" font-size="11" lengthAdjust="spacingAndGlyphs" textLength="22" x="12" y="179.1846">user</text><!--class Sensor--><rect fill="#FEFECE" filter="url(#f8f0e72)" height="136.8516" style="stroke: #A80036; stroke-width: 1.5;" width="72" x="9" y="220.4219"/><ellipse cx="24" cy="236.4219" fill="#FFAAAA" rx="11" ry="11" style="stroke: #A80036; stroke-width: 1.0;"/><path d="M22.8594,237.2188 L22.8594,239.7188 L27.1875,239.7188 L27.1875,238.7969 Q27.1875,238.1875 27.4297,237.9219 Q27.6719,237.6563 28.0469,237.6563 Q28.4219,237.6563 28.6563,237.9219 Q28.8906,238.1875 28.8906,238.7969 L28.8906,241.4219 L20.8906,241.4219 Q20.2656,241.4219 20.0078,241.1875 Q19.75,240.9531 19.75,240.5625 Q19.75,240.1875 20.0156,239.9531 Q20.2813,239.7188 20.8906,239.7188 L21.1563,239.7188 L21.1563,233.0625 L20.8906,233.0625 Q20.2656,233.0625 20.0078,232.8281 Q19.75,232.5938 19.75,232.2031 Q19.75,231.8281 20.0078,231.5938 Q20.2656,231.3594 20.8906,231.3594 L28.5156,231.3594 L28.5156,233.9531 Q28.5156,234.5625 28.2891,234.8203 Q28.0625,235.0781 27.6719,235.0781 Q27.2969,235.0781 27.0625,234.8203 Q26.8281,234.5625 26.8281,233.9531 L26.8281,233.0625 L22.8594,233.0625 L22.8594,235.5156 L24.3438,235.5156 Q24.3438,234.8594 24.4688,234.6719 Q24.7344,234.2656 25.2031,234.2656 Q25.5781,234.2656 25.8125,234.5234 Q26.0469,234.7813 26.0469,235.3906 L26.0469,237.3594 Q26.0469,237.9063 25.9219,238.0938 Q25.6563,238.4844 25.2031,238.4844 Q24.7344,238.4844 24.4688,238.0781 Q24.3438,237.8906 24.3438,237.2188 L22.8594,237.2188 Z "/><text fill="#000000" font-family="sans-serif" font-size="12" lengthAdjust="spacingAndGlyphs" textLength="40" x="38" y="241.332">Sensor</text><line style="stroke: #A80036; stroke-width: 1.5;" x1="10" x2="80" y1="252.4219" y2="252.4219"/><text fill="#000000" font-family="sans-serif" font-size="11" lengthAdjust="spacingAndGlyphs" text-decoration="underline" textLength="20" x="15" y="267.8408">uuid</text><line style="stroke: #000000; stroke-width: 1.0;" x1="15" x2="35" y1="269.8408" y2="269.8408"/><text fill="#000000" font-family="sans-serif" font-size="11" font-weight="bold" lengthAdjust="spacingAndGlyphs" textLength="27" x="15" y="281.6768">code</text><text fill="#000000" font-family="sans-serif" font-size="11" lengthAdjust="spacingAndGlyphs" textLength="53" x="15" y="295.5127">description</text><text fill="#000000" font-family="sans-serif" font-size="11" lengthAdjust="spacingAndGlyphs" textLength="28" x="15" y="309.3486">model</text><text fill="#000000" font-family="sans-serif" font-size="11" lengthAdjust="spacingAndGlyphs" textLength="59" x="15" y="323.1846">recvIntervall</text><text fill="#000000" font-family="sans-serif" font-size="11" lengthAdjust="spacingAndGlyphs" textLength="44" x="15" y="337.0205">recvTime</text><text fill="#000000" font-family="sans-serif" font-size="11" lengthAdjust="spacingAndGlyphs" textLength="47" x="15" y="350.8564">batteryOk</text><!--class User--><rect fill="#FEFECE" filter="url(#f8f0e72)" height="164.5234" style="stroke: #A80036; stroke-width: 1.5;" width="73" x="476" y="85.4219"/><ellipse cx="497.3" cy="101.4219" fill="#FFAAAA" rx="11" ry="11" style="stroke: #A80036; stroke-width: 1.0;"/><path d="M496.1594,102.2188 L496.1594,104.7188 L500.4875,104.7188 L500.4875,103.7969 Q500.4875,103.1875 500.7297,102.9219 Q500.9719,102.6563 501.3469,102.6563 Q501.7219,102.6563 501.9563,102.9219 Q502.1906,103.1875 502.1906,103.7969 L502.1906,106.4219 L494.1906,106.4219 Q493.5656,106.4219 493.3078,106.1875 Q493.05,105.9531 493.05,105.5625 Q493.05,105.1875 493.3156,104.9531 Q493.5813,104.7188 494.1906,104.7188 L494.4563,104.7188 L494.4563,98.0625 L494.1906,98.0625 Q493.5656,98.0625 493.3078,97.8281 Q493.05,97.5938 493.05,97.2031 Q493.05,96.8281 493.3078,96.5938 Q493.5656,96.3594 494.1906,96.3594 L501.8156,96.3594 L501.8156,98.9531 Q501.8156,99.5625 501.5891,99.8203 Q501.3625,100.0781 500.9719,100.0781 Q500.5969,100.0781 500.3625,99.8203 Q500.1281,99.5625 500.1281,98.9531 L500.1281,98.0625 L496.1594,98.0625 L496.1594,100.5156 L497.6438,100.5156 Q497.6438,99.8594 497.7688,99.6719 Q498.0344,99.2656 498.5031,99.2656 Q498.8781,99.2656 499.1125,99.5234 Q499.3469,99.7813 499.3469,100.3906 L499.3469,102.3594 Q499.3469,102.9063 499.2219,103.0938 Q498.9563,103.4844 498.5031,103.4844 Q498.0344,103.4844 497.7688,103.0781 Q497.6438,102.8906 497.6438,102.2188 L496.1594,102.2188 Z "/><text fill="#000000" font-family="sans-serif" font-size="12" lengthAdjust="spacingAndGlyphs" textLength="27" x="512.7" y="106.332">User</text><line style="stroke: #A80036; stroke-width: 1.5;" x1="477" x2="548" y1="117.4219" y2="117.4219"/><text fill="#000000" font-family="sans-serif" font-size="11" lengthAdjust="spacingAndGlyphs" text-decoration="underline" textLength="20" x="482" y="132.8408">uuid</text><line style="stroke: #000000; stroke-width: 1.0;" x1="482" x2="502" y1="134.8408" y2="134.8408"/><text fill="#000000" font-family="sans-serif" font-size="11" font-weight="bold" lengthAdjust="spacingAndGlyphs" textLength="30" x="482" y="146.6768">email</text><text fill="#000000" font-family="sans-serif" font-size="11" lengthAdjust="spacingAndGlyphs" textLength="49" x="482" y="160.5127">userName</text><text fill="#000000" font-family="sans-serif" font-size="11" lengthAdjust="spacingAndGlyphs" textLength="46" x="482" y="174.3486">firstName</text><text fill="#000000" font-family="sans-serif" font-size="11" lengthAdjust="spacingAndGlyphs" textLength="44" x="482" y="188.1846">lastName</text><text fill="#000000" font-family="sans-serif" font-size="11" lengthAdjust="spacingAndGlyphs" textLength="61" x="482" y="202.0205">displayName</text><text fill="#000000" font-family="sans-serif" font-size="11" lengthAdjust="spacingAndGlyphs" textLength="50" x="482" y="215.8564">password</text><text fill="#000000" font-family="sans-serif" font-size="11" lengthAdjust="spacingAndGlyphs" textLength="53" x="482" y="229.6924">verification</text><text fill="#000000" font-family="sans-serif" font-size="11" lengthAdjust="spacingAndGlyphs" textLength="35" x="482" y="243.5283">partner</text><!--class Tag--><rect fill="#FEFECE" filter="url(#f8f0e72)" height="81.5078" style="stroke: #A80036; stroke-width: 1.5;" width="65" x="155.5" y="174.9219"/><ellipse cx="175.9" cy="190.9219" fill="#FFAAAA" rx="11" ry="11" style="stroke: #A80036; stroke-width: 1.0;"/><path d="M174.7594,191.7188 L174.7594,194.2188 L179.0875,194.2188 L179.0875,193.2969 Q179.0875,192.6875 179.3297,192.4219 Q179.5719,192.1563 179.9469,192.1563 Q180.3219,192.1563 180.5563,192.4219 Q180.7906,192.6875 180.7906,193.2969 L180.7906,195.9219 L172.7906,195.9219 Q172.1656,195.9219 171.9078,195.6875 Q171.65,195.4531 171.65,195.0625 Q171.65,194.6875 171.9156,194.4531 Q172.1813,194.2188 172.7906,194.2188 L173.0563,194.2188 L173.0563,187.5625 L172.7906,187.5625 Q172.1656,187.5625 171.9078,187.3281 Q171.65,187.0938 171.65,186.7031 Q171.65,186.3281 171.9078,186.0938 Q172.1656,185.8594 172.7906,185.8594 L180.4156,185.8594 L180.4156,188.4531 Q180.4156,189.0625 180.1891,189.3203 Q179.9625,189.5781 179.5719,189.5781 Q179.1969,189.5781 178.9625,189.3203 Q178.7281,189.0625 178.7281,188.4531 L178.7281,187.5625 L174.7594,187.5625 L174.7594,190.0156 L176.2438,190.0156 Q176.2438,189.3594 176.3688,189.1719 Q176.6344,188.7656 177.1031,188.7656 Q177.4781,188.7656 177.7125,189.0234 Q177.9469,189.2813 177.9469,189.8906 L177.9469,191.8594 Q177.9469,192.4063 177.8219,192.5938 Q177.5563,192.9844 177.1031,192.9844 Q176.6344,192.9844 176.3688,192.5781 Q176.2438,192.3906 176.2438,191.7188 L174.7594,191.7188 Z "/><text fill="#000000" font-family="sans-serif" font-size="12" lengthAdjust="spacingAndGlyphs" textLength="21" x="191.1" y="195.832">Tag</text><line style="stroke: #A80036; stroke-width: 1.5;" x1="156.5" x2="219.5" y1="206.9219" y2="206.9219"/><text fill="#000000" font-family="sans-serif" font-size="11" lengthAdjust="spacingAndGlyphs" text-decoration="underline" textLength="20" x="161.5" y="222.3408">uuid</text><line style="stroke: #000000; stroke-width: 1.0;" x1="161.5" x2="181.5" y1="224.3408" y2="224.3408"/><text fill="#000000" font-family="sans-serif" font-size="11" lengthAdjust="spacingAndGlyphs" textLength="22" x="161.5" y="236.1768">label</text><text fill="#000000" font-family="sans-serif" font-size="11" lengthAdjust="spacingAndGlyphs" textLength="53" x="161.5" y="250.0127">foreignUse</text><!--class Invitation--><rect fill="#FEFECE" filter="url(#f8f0e72)" height="53.8359" style="stroke: #A80036; stroke-width: 1.5;" width="80" x="649" y="140.9219"/><ellipse cx="664" cy="156.9219" fill="#FFAAAA" rx="11" ry="11" style="stroke: #A80036; stroke-width: 1.0;"/><path d="M662.8594,157.7188 L662.8594,160.2188 L667.1875,160.2188 L667.1875,159.2969 Q667.1875,158.6875 667.4297,158.4219 Q667.6719,158.1563 668.0469,158.1563 Q668.4219,158.1563 668.6563,158.4219 Q668.8906,158.6875 668.8906,159.2969 L668.8906,161.9219 L660.8906,161.9219 Q660.2656,161.9219 660.0078,161.6875 Q659.75,161.4531 659.75,161.0625 Q659.75,160.6875 660.0156,160.4531 Q660.2813,160.2188 660.8906,160.2188 L661.1563,160.2188 L661.1563,153.5625 L660.8906,153.5625 Q660.2656,153.5625 660.0078,153.3281 Q659.75,153.0938 659.75,152.7031 Q659.75,152.3281 660.0078,152.0938 Q660.2656,151.8594 660.8906,151.8594 L668.5156,151.8594 L668.5156,154.4531 Q668.5156,155.0625 668.2891,155.3203 Q668.0625,155.5781 667.6719,155.5781 Q667.2969,155.5781 667.0625,155.3203 Q666.8281,155.0625 666.8281,154.4531 L666.8281,153.5625 L662.8594,153.5625 L662.8594,156.0156 L664.3438,156.0156 Q664.3438,155.3594 664.4688,155.1719 Q664.7344,154.7656 665.2031,154.7656 Q665.5781,154.7656 665.8125,155.0234 Q666.0469,155.2813 666.0469,155.8906 L666.0469,157.8594 Q666.0469,158.4063 665.9219,158.5938 Q665.6563,158.9844 665.2031,158.9844 Q664.7344,158.9844 664.4688,158.5781 Q664.3438,158.3906 664.3438,157.7188 L662.8594,157.7188 Z "/><text fill="#000000" font-family="sans-serif" font-size="12" lengthAdjust="spacingAndGlyphs" textLength="48" x="678" y="161.832">Invitation</text><line style="stroke: #A80036; stroke-width: 1.5;" x1="650" x2="728" y1="172.9219" y2="172.9219"/><text fill="#000000" font-family="sans-serif" font-size="11" lengthAdjust="spacingAndGlyphs" text-decoration="underline" textLength="20" x="655" y="188.3408">uuid</text><line style="stroke: #000000; stroke-width: 1.0;" x1="655" x2="675" y1="190.3408" y2="190.3408"/><!--class Capability--><rect fill="#FEFECE" filter="url(#f8f0e72)" height="67.6719" style="stroke: #A80036; stroke-width: 1.5;" width="86" x="145" y="291.9219"/><ellipse cx="160" cy="307.9219" fill="#FFAAAA" rx="11" ry="11" style="stroke: #A80036; stroke-width: 1.0;"/><path d="M158.8594,308.7188 L158.8594,311.2188 L163.1875,311.2188 L163.1875,310.2969 Q163.1875,309.6875 163.4297,309.4219 Q163.6719,309.1563 164.0469,309.1563 Q164.4219,309.1563 164.6563,309.4219 Q164.8906,309.6875 164.8906,310.2969 L164.8906,312.9219 L156.8906,312.9219 Q156.2656,312.9219 156.0078,312.6875 Q155.75,312.4531 155.75,312.0625 Q155.75,311.6875 156.0156,311.4531 Q156.2813,311.2188 156.8906,311.2188 L157.1563,311.2188 L157.1563,304.5625 L156.8906,304.5625 Q156.2656,304.5625 156.0078,304.3281 Q155.75,304.0938 155.75,303.7031 Q155.75,303.3281 156.0078,303.0938 Q156.2656,302.8594 156.8906,302.8594 L164.5156,302.8594 L164.5156,305.4531 Q164.5156,306.0625 164.2891,306.3203 Q164.0625,306.5781 163.6719,306.5781 Q163.2969,306.5781 163.0625,306.3203 Q162.8281,306.0625 162.8281,305.4531 L162.8281,304.5625 L158.8594,304.5625 L158.8594,307.0156 L160.3438,307.0156 Q160.3438,306.3594 160.4688,306.1719 Q160.7344,305.7656 161.2031,305.7656 Q161.5781,305.7656 161.8125,306.0234 Q162.0469,306.2813 162.0469,306.8906 L162.0469,308.8594 Q162.0469,309.4063 161.9219,309.5938 Q161.6563,309.9844 161.2031,309.9844 Q160.7344,309.9844 160.4688,309.5781 Q160.3438,309.3906 160.3438,308.7188 L158.8594,308.7188 Z "/><text fill="#000000" font-family="sans-serif" font-size="12" lengthAdjust="spacingAndGlyphs" textLength="54" x="174" y="312.832">Capability</text><line style="stroke: #A80036; stroke-width: 1.5;" x1="146" x2="230" y1="323.9219" y2="323.9219"/><text fill="#000000" font-family="sans-serif" font-size="11" lengthAdjust="spacingAndGlyphs" textLength="26" x="151" y="339.3408">name</text><text fill="#000000" font-family="sans-serif" font-size="11" lengthAdjust="spacingAndGlyphs" textLength="21" x="151" y="353.1768">type</text><!--class Policy--><rect fill="#FEFECE" filter="url(#f8f0e72)" height="67.6719" style="stroke: #A80036; stroke-width: 1.5;" width="68" x="478.5" y="294.9219"/><ellipse cx="495.3" cy="310.9219" fill="#FFAAAA" rx="11" ry="11" style="stroke: #A80036; stroke-width: 1.0;"/><path d="M494.1594,311.7188 L494.1594,314.2188 L498.4875,314.2188 L498.4875,313.2969 Q498.4875,312.6875 498.7297,312.4219 Q498.9719,312.1563 499.3469,312.1563 Q499.7219,312.1563 499.9563,312.4219 Q500.1906,312.6875 500.1906,313.2969 L500.1906,315.9219 L492.1906,315.9219 Q491.5656,315.9219 491.3078,315.6875 Q491.05,315.4531 491.05,315.0625 Q491.05,314.6875 491.3156,314.4531 Q491.5813,314.2188 492.1906,314.2188 L492.4563,314.2188 L492.4563,307.5625 L492.1906,307.5625 Q491.5656,307.5625 491.3078,307.3281 Q491.05,307.0938 491.05,306.7031 Q491.05,306.3281 491.3078,306.0938 Q491.5656,305.8594 492.1906,305.8594 L499.8156,305.8594 L499.8156,308.4531 Q499.8156,309.0625 499.5891,309.3203 Q499.3625,309.5781 498.9719,309.5781 Q498.5969,309.5781 498.3625,309.3203 Q498.1281,309.0625 498.1281,308.4531 L498.1281,307.5625 L494.1594,307.5625 L494.1594,310.0156 L495.6438,310.0156 Q495.6438,309.3594 495.7688,309.1719 Q496.0344,308.7656 496.5031,308.7656 Q496.8781,308.7656 497.1125,309.0234 Q497.3469,309.2813 497.3469,309.8906 L497.3469,311.8594 Q497.3469,312.4063 497.2219,312.5938 Q496.9563,312.9844 496.5031,312.9844 Q496.0344,312.9844 495.7688,312.5781 Q495.6438,312.3906 495.6438,311.7188 L494.1594,311.7188 Z "/><text fill="#000000" font-family="sans-serif" font-size="12" lengthAdjust="spacingAndGlyphs" textLength="32" x="509.7" y="315.832">Policy</text><line style="stroke: #A80036; stroke-width: 1.5;" x1="479.5" x2="545.5" y1="326.9219" y2="326.9219"/><text fill="#000000" font-family="sans-serif" font-size="11" lengthAdjust="spacingAndGlyphs" textLength="43" x="484.5" y="342.3408">userUuid</text><text fill="#000000" font-family="sans-serif" font-size="11" lengthAdjust="spacingAndGlyphs" textLength="56" x="484.5" y="356.1768">policyValue</text><polygon fill="#FBFB77" filter="url(#f8f0e72)" points="437,432.9219,437,459.2734,588,459.2734,588,442.9219,578,432.9219,437,432.9219" style="stroke: #A80036; stroke-width: 1.0;"/><polygon fill="#FBFB77" points="437,432.9219,437,459.2734,588,459.2734,588,442.9219,578,432.9219,516.5,432.9219,512.5,362.9636,508.5,432.9219,437,432.9219" style="stroke: #A80036; stroke-width: 1.0;"/><line style="stroke: #A80036; stroke-width: 1.0;" x1="578" x2="578" y1="432.9219" y2="442.9219"/><line style="stroke: #A80036; stroke-width: 1.0;" x1="588" x2="578" y1="442.9219" y2="442.9219"/><text fill="#000000" font-family="sans-serif" font-size="13" lengthAdjust="spacingAndGlyphs" textLength="130" x="443" y="451.417">policy values: {1,2,3,4}</text><path d="M562.488,167.9219 C589.831,167.9219 623.425,167.9219 648.975,167.9219 " fill="none" style="stroke: #A80036; stroke-width: 1.0;"/><polygon fill="#A80036" points="549.234,167.9219,555.234,171.9219,561.234,167.9219,555.234,163.9219,549.234,167.9219" style="stroke: #A80036; stroke-width: 1.0;"/><text fill="#000000" font-family="sans-serif" font-size="13" lengthAdjust="spacingAndGlyphs" textLength="7" x="556.9036" y="183.0209">1</text><text fill="#000000" font-family="sans-serif" font-size="13" lengthAdjust="spacingAndGlyphs" textLength="24" x="617.0087" y="182.6815">0..N</text><path d="M464.259,196.6109 C446.893,205.6129 426.657,214.3809 407,218.9219 C342.092,233.9159 263.393,226.8749 220.545,221.0099 " fill="none" style="stroke: #A80036; stroke-width: 1.0;"/><polygon fill="#A80036" points="475.781,190.3899,468.601,189.7206,465.2217,196.0909,472.4017,196.7601,475.781,190.3899" style="stroke: #A80036; stroke-width: 1.0;"/><text fill="#000000" font-family="sans-serif" font-size="13" lengthAdjust="spacingAndGlyphs" textLength="38" x="315" y="215.417">tag_all</text><text fill="#000000" font-family="sans-serif" font-size="13" lengthAdjust="spacingAndGlyphs" textLength="7" x="461.1143" y="209.7719">1</text><text fill="#000000" font-family="sans-serif" font-size="13" lengthAdjust="spacingAndGlyphs" textLength="7" x="228.4298" y="237.4603">1</text><path d="M233.501,203.1199 C242.548,200.8169 252.038,198.6139 261,196.9219 C336.93,182.5839 427.234,174.2319 475.998,170.4269 " fill="none" style="stroke: #A80036; stroke-width: 1.0;"/><polygon fill="#A80036" points="220.677,206.5179,227.5015,208.8474,232.2766,203.4439,225.4521,201.1144,220.677,206.5179" style="stroke: #A80036; stroke-width: 1.0;"/><text fill="#000000" font-family="sans-serif" font-size="13" lengthAdjust="spacingAndGlyphs" textLength="34" x="317" y="173.417">owner</text><text fill="#000000" font-family="sans-serif" font-size="13" lengthAdjust="spacingAndGlyphs" textLength="7" x="228.5907" y="200.2982">1</text><text fill="#000000" font-family="sans-serif" font-size="13" lengthAdjust="spacingAndGlyphs" textLength="7" x="461.1226" y="186.0717">1</text><path d="M94.0062,301.5189 C110.547,305.8599 128.934,310.6849 144.962,314.8909 " fill="none" style="stroke: #A80036; stroke-width: 1.0;"/><polygon fill="#A80036" points="81.2165,298.1629,86.0047,303.5548,92.8235,301.2088,88.0353,295.8168,81.2165,298.1629" style="stroke: #A80036; stroke-width: 1.0;"/><text fill="#000000" font-family="sans-serif" font-size="13" lengthAdjust="spacingAndGlyphs" textLength="7" x="89.0357" y="315.1015">1</text><text fill="#000000" font-family="sans-serif" font-size="13" lengthAdjust="spacingAndGlyphs" textLength="24" x="112.8783" y="327.9907">1..N</text><path d="M92.8463,264.6679 C113.291,254.0829 136.738,241.9439 155.119,232.4279 " fill="none" style="stroke: #A80036; stroke-width: 1.0;"/><polygon fill="#A80036" points="81.2165,270.6889,88.3838,271.4824,91.8729,265.1716,84.7056,264.3781,81.2165,270.6889" style="stroke: #A80036; stroke-width: 1.0;"/><text fill="#000000" font-family="sans-serif" font-size="13" lengthAdjust="spacingAndGlyphs" textLength="7" x="89.0357" y="282.2186">1</text><text fill="#000000" font-family="sans-serif" font-size="13" lengthAdjust="spacingAndGlyphs" textLength="24" x="123.4051" y="250.2075">1..N</text><path d="M226.683,267.5579 C241.407,287.0389 255.97,305.2059 261,307.9219 C330.887,345.6669 428.014,340.3569 478.326,334.1339 " fill="none" style="stroke: #A80036; stroke-width: 1.0;"/><polygon fill="#A80036" points="218.782,257.0089,219.1769,264.2092,225.9752,266.6139,225.5803,259.4137,218.782,257.0089" style="stroke: #A80036; stroke-width: 1.0;"/><polygon fill="#FBFB77" filter="url(#f8f0e72)" points="266,239.9219,266,298.9219,398,298.9219,398,249.9219,388,239.9219,266,239.9219" style="stroke: #A80036; stroke-width: 1.0;"/><line style="stroke: #A80036; stroke-width: 1.0;" x1="388" x2="388" y1="239.9219" y2="249.9219"/><line style="stroke: #A80036; stroke-width: 1.0;" x1="398" x2="388" y1="249.9219" y2="249.9219"/><text fill="#000000" font-family="sans-serif" font-size="13" lengthAdjust="spacingAndGlyphs" textLength="111" x="272" y="258.417">at least 1:1 relation</text><text fill="#000000" font-family="sans-serif" font-size="13" lengthAdjust="spacingAndGlyphs" textLength="106" x="272" y="274.7686">because of sensor</text><text fill="#000000" font-family="sans-serif" font-size="13" lengthAdjust="spacingAndGlyphs" textLength="34" x="272" y="291.1201">owner</text><text fill="#000000" font-family="sans-serif" font-size="13" lengthAdjust="spacingAndGlyphs" textLength="7" x="215.789" y="277.7756">1</text><text fill="#000000" font-family="sans-serif" font-size="13" lengthAdjust="spacingAndGlyphs" textLength="24" x="446.3898" y="349.9582">1..N</text><rect fill="#DDDDDD" height="84.4375" rx="5" ry="5" style="stroke: #000000; stroke-width: 1.0;" width="188" x="8" y="476.9219"/><text fill="#000000" font-family="sans-serif" font-size="14" font-weight="bold" lengthAdjust="spacingAndGlyphs" textLength="53" x="18" y="498.4551">Legend</text><text fill="#000000" font-family="sans-serif" font-size="14" font-weight="bold" lengthAdjust="spacingAndGlyphs" textLength="0" x="117" y="498.4551"/><text fill="#000000" font-family="sans-serif" font-size="14" lengthAdjust="spacingAndGlyphs" textLength="9" x="18" y="516.0645">E</text><text fill="#000000" font-family="sans-serif" font-size="14" lengthAdjust="spacingAndGlyphs" textLength="67" x="113" y="516.0645">&lt;&lt;Entity&gt;&gt;</text><text fill="#000000" font-family="sans-serif" font-size="14" lengthAdjust="spacingAndGlyphs" textLength="67" x="18" y="533.6738">underlined</text><text fill="#000000" font-family="sans-serif" font-size="14" lengthAdjust="spacingAndGlyphs" textLength="73" x="113" y="533.6738">primary key</text><text fill="#000000" font-family="sans-serif" font-size="14" lengthAdjust="spacingAndGlyphs" textLength="27" x="18" y="551.2832">bold</text><text fill="#000000" font-family="sans-serif" font-size="14" lengthAdjust="spacingAndGlyphs" textLength="43" x="113" y="551.2832">unique</text><line style="stroke: #000000; stroke-width: 1.0;" x1="14" x2="190" y1="483.9219" y2="483.9219"/><line style="stroke: #000000; stroke-width: 1.0;" x1="14" x2="190" y1="501.5313" y2="501.5313"/><line style="stroke: #000000; stroke-width: 1.0;" x1="14" x2="190" y1="519.1406" y2="519.1406"/><line style="stroke: #000000; stroke-width: 1.0;" x1="14" x2="190" y1="536.75" y2="536.75"/><line style="stroke: #000000; stroke-width: 1.0;" x1="14" x2="190" y1="554.3594" y2="554.3594"/><line style="stroke: #000000; stroke-width: 1.0;" x1="14" x2="14" y1="483.9219" y2="554.3594"/><line style="stroke: #000000; stroke-width: 1.0;" x1="109" x2="109" y1="483.9219" y2="554.3594"/><line style="stroke: #000000; stroke-width: 1.0;" x1="190" x2="190" y1="483.9219" y2="554.3594"/></g></svg>