<?xml version="1.0" encoding="UTF-8" standalone="no"?><svg xmlns="http://www.w3.org/2000/svg" xmlns:xlink="http://www.w3.org/1999/xlink" contentScriptType="application/ecmascript" contentStyleType="text/css" height="514px" preserveAspectRatio="none" style="width:729px;height:514px;" version="1.1" viewBox="0 0 729 514" width="729px" zoomAndPan="magnify"><defs><filter height="300%" id="fnautzf" width="300%" x="-1" y="-1"><feGaussianBlur result="blurOut" stdDeviation="2.0"/><feColorMatrix in="blurOut" result="blurOut2" type="matrix" values="0 0 0 0 0 0 0 0 0 0 0 0 0 0 0 0 0 0 .4 0"/><feOffset dx="4.0" dy="4.0" in="blurOut2" result="blurOut3"/><feBlend in="SourceGraphic" in2="blurOut3" mode="normal"/></filter></defs><g><text fill="#000000" font-family="sans-serif" font-size="18" lengthAdjust="spacingAndGlyphs" textLength="128" x="305" y="18.6855">Qloud Simulator</text><text fill="#000000" font-family="sans-serif" font-size="18" lengthAdjust="spacingAndGlyphs" textLength="203" x="267.5" y="41.3262">Entity Relationship Model</text><text fill="#000000" font-family="sans-serif" font-size="18" lengthAdjust="spacingAndGlyphs" textLength="0" x="371.5" y="63.9668"/><!--class Sensor--><rect fill="#FEFECE" filter="url(#fnautzf)" height="136.8516" style="stroke: #A80036; stroke-width: 1.5;" width="72" x="145.5" y="75.9219"/><ellipse cx="160.5" cy="91.9219" fill="#FFAAAA" rx="11" ry="11" style="stroke: #A80036; stroke-width: 1.0;"/><path d="M159.3594,92.7188 L159.3594,95.2188 L163.6875,95.2188 L163.6875,94.2969 Q163.6875,93.6875 163.9297,93.4219 Q164.1719,93.1563 164.5469,93.1563 Q164.9219,93.1563 165.1563,93.4219 Q165.3906,93.6875 165.3906,94.2969 L165.3906,96.9219 L157.3906,96.9219 Q156.7656,96.9219 156.5078,96.6875 Q156.25,96.4531 156.25,96.0625 Q156.25,95.6875 156.5156,95.4531 Q156.7813,95.2188 157.3906,95.2188 L157.6563,95.2188 L157.6563,88.5625 L157.3906,88.5625 Q156.7656,88.5625 156.5078,88.3281 Q156.25,88.0938 156.25,87.7031 Q156.25,87.3281 156.5078,87.0938 Q156.7656,86.8594 157.3906,86.8594 L165.0156,86.8594 L165.0156,89.4531 Q165.0156,90.0625 164.7891,90.3203 Q164.5625,90.5781 164.1719,90.5781 Q163.7969,90.5781 163.5625,90.3203 Q163.3281,90.0625 163.3281,89.4531 L163.3281,88.5625 L159.3594,88.5625 L159.3594,91.0156 L160.8438,91.0156 Q160.8438,90.3594 160.9688,90.1719 Q161.2344,89.7656 161.7031,89.7656 Q162.0781,89.7656 162.3125,90.0234 Q162.5469,90.2813 162.5469,90.8906 L162.5469,92.8594 Q162.5469,93.4063 162.4219,93.5938 Q162.1563,93.9844 161.7031,93.9844 Q161.2344,93.9844 160.9688,93.5781 Q160.8438,93.3906 160.8438,92.7188 L159.3594,92.7188 Z "/><text fill="#000000" font-family="sans-serif" font-size="12" lengthAdjust="spacingAndGlyphs" textLength="40" x="174.5" y="96.832">Sensor</text><line style="stroke: #A80036; stroke-width: 1.5;" x1="146.5" x2="216.5" y1="107.9219" y2="107.9219"/><text fill="#000000" font-family="sans-serif" font-size="11" lengthAdjust="spacingAndGlyphs" text-decoration="underline" textLength="20" x="151.5" y="123.3408">uuid</text><line style="stroke: #000000; stroke-width: 1.0;" x1="151.5" x2="171.5" y1="125.3408" y2="125.3408"/><text fill="#000000" font-family="sans-serif" font-size="11" font-weight="bold" lengthAdjust="spacingAndGlyphs" textLength="27" x="151.5" y="137.1768">code</text><text fill="#000000" font-family="sans-serif" font-size="11" lengthAdjust="spacingAndGlyphs" textLength="53" x="151.5" y="151.0127">description</text><text fill="#000000" font-family="sans-serif" font-size="11" lengthAdjust="spacingAndGlyphs" textLength="28" x="151.5" y="164.8486">model</text><text fill="#000000" font-family="sans-serif" font-size="11" lengthAdjust="spacingAndGlyphs" textLength="44" x="151.5" y="178.6846">recvTime</text><text fill="#000000" font-family="sans-serif" font-size="11" lengthAdjust="spacingAndGlyphs" textLength="59" x="151.5" y="192.5205">recvIntervall</text><text fill="#000000" font-family="sans-serif" font-size="11" lengthAdjust="spacingAndGlyphs" textLength="47" x="151.5" y="206.3564">batteryOk</text><!--class Session--><rect fill="#FEFECE" filter="url(#fnautzf)" height="109.1797" style="stroke: #A80036; stroke-width: 1.5;" width="78" x="6" y="280.9219"/><ellipse cx="21" cy="296.9219" fill="#FFAAAA" rx="11" ry="11" style="stroke: #A80036; stroke-width: 1.0;"/><path d="M19.8594,297.7188 L19.8594,300.2188 L24.1875,300.2188 L24.1875,299.2969 Q24.1875,298.6875 24.4297,298.4219 Q24.6719,298.1563 25.0469,298.1563 Q25.4219,298.1563 25.6563,298.4219 Q25.8906,298.6875 25.8906,299.2969 L25.8906,301.9219 L17.8906,301.9219 Q17.2656,301.9219 17.0078,301.6875 Q16.75,301.4531 16.75,301.0625 Q16.75,300.6875 17.0156,300.4531 Q17.2813,300.2188 17.8906,300.2188 L18.1563,300.2188 L18.1563,293.5625 L17.8906,293.5625 Q17.2656,293.5625 17.0078,293.3281 Q16.75,293.0938 16.75,292.7031 Q16.75,292.3281 17.0078,292.0938 Q17.2656,291.8594 17.8906,291.8594 L25.5156,291.8594 L25.5156,294.4531 Q25.5156,295.0625 25.2891,295.3203 Q25.0625,295.5781 24.6719,295.5781 Q24.2969,295.5781 24.0625,295.3203 Q23.8281,295.0625 23.8281,294.4531 L23.8281,293.5625 L19.8594,293.5625 L19.8594,296.0156 L21.3438,296.0156 Q21.3438,295.3594 21.4688,295.1719 Q21.7344,294.7656 22.2031,294.7656 Q22.5781,294.7656 22.8125,295.0234 Q23.0469,295.2813 23.0469,295.8906 L23.0469,297.8594 Q23.0469,298.4063 22.9219,298.5938 Q22.6563,298.9844 22.2031,298.9844 Q21.7344,298.9844 21.4688,298.5781 Q21.3438,298.3906 21.3438,297.7188 L19.8594,297.7188 Z "/><text fill="#000000" font-family="sans-serif" font-size="12" lengthAdjust="spacingAndGlyphs" textLength="46" x="35" y="301.832">Session</text><line style="stroke: #A80036; stroke-width: 1.5;" x1="7" x2="83" y1="312.9219" y2="312.9219"/><text fill="#000000" font-family="sans-serif" font-size="11" lengthAdjust="spacingAndGlyphs" text-decoration="underline" textLength="14" x="12" y="328.3408">sid</text><line style="stroke: #000000; stroke-width: 1.0;" x1="12" x2="26" y1="330.3408" y2="330.3408"/><text fill="#000000" font-family="sans-serif" font-size="11" lengthAdjust="spacingAndGlyphs" textLength="32" x="12" y="342.1768">server</text><text fill="#000000" font-family="sans-serif" font-size="11" lengthAdjust="spacingAndGlyphs" textLength="35" x="12" y="356.0127">partner</text><text fill="#000000" font-family="sans-serif" font-size="11" lengthAdjust="spacingAndGlyphs" textLength="17" x="12" y="369.8486">key</text><text fill="#000000" font-family="sans-serif" font-size="11" lengthAdjust="spacingAndGlyphs" textLength="22" x="12" y="383.6846">user</text><!--class User--><rect fill="#FEFECE" filter="url(#fnautzf)" height="150.6875" style="stroke: #A80036; stroke-width: 1.5;" width="73" x="145" y="259.9219"/><ellipse cx="166.3" cy="275.9219" fill="#FFAAAA" rx="11" ry="11" style="stroke: #A80036; stroke-width: 1.0;"/><path d="M165.1594,276.7188 L165.1594,279.2188 L169.4875,279.2188 L169.4875,278.2969 Q169.4875,277.6875 169.7297,277.4219 Q169.9719,277.1563 170.3469,277.1563 Q170.7219,277.1563 170.9563,277.4219 Q171.1906,277.6875 171.1906,278.2969 L171.1906,280.9219 L163.1906,280.9219 Q162.5656,280.9219 162.3078,280.6875 Q162.05,280.4531 162.05,280.0625 Q162.05,279.6875 162.3156,279.4531 Q162.5813,279.2188 163.1906,279.2188 L163.4563,279.2188 L163.4563,272.5625 L163.1906,272.5625 Q162.5656,272.5625 162.3078,272.3281 Q162.05,272.0938 162.05,271.7031 Q162.05,271.3281 162.3078,271.0938 Q162.5656,270.8594 163.1906,270.8594 L170.8156,270.8594 L170.8156,273.4531 Q170.8156,274.0625 170.5891,274.3203 Q170.3625,274.5781 169.9719,274.5781 Q169.5969,274.5781 169.3625,274.3203 Q169.1281,274.0625 169.1281,273.4531 L169.1281,272.5625 L165.1594,272.5625 L165.1594,275.0156 L166.6438,275.0156 Q166.6438,274.3594 166.7688,274.1719 Q167.0344,273.7656 167.5031,273.7656 Q167.8781,273.7656 168.1125,274.0234 Q168.3469,274.2813 168.3469,274.8906 L168.3469,276.8594 Q168.3469,277.4063 168.2219,277.5938 Q167.9563,277.9844 167.5031,277.9844 Q167.0344,277.9844 166.7688,277.5781 Q166.6438,277.3906 166.6438,276.7188 L165.1594,276.7188 Z "/><text fill="#000000" font-family="sans-serif" font-size="12" lengthAdjust="spacingAndGlyphs" textLength="27" x="181.7" y="280.832">User</text><line style="stroke: #A80036; stroke-width: 1.5;" x1="146" x2="217" y1="291.9219" y2="291.9219"/><text fill="#000000" font-family="sans-serif" font-size="11" lengthAdjust="spacingAndGlyphs" text-decoration="underline" textLength="20" x="151" y="307.3408">uuid</text><line style="stroke: #000000; stroke-width: 1.0;" x1="151" x2="171" y1="309.3408" y2="309.3408"/><text fill="#000000" font-family="sans-serif" font-size="11" font-weight="bold" lengthAdjust="spacingAndGlyphs" textLength="30" x="151" y="321.1768">email</text><text fill="#000000" font-family="sans-serif" font-size="11" lengthAdjust="spacingAndGlyphs" textLength="49" x="151" y="335.0127">userName</text><text fill="#000000" font-family="sans-serif" font-size="11" lengthAdjust="spacingAndGlyphs" textLength="46" x="151" y="348.8486">firstName</text><text fill="#000000" font-family="sans-serif" font-size="11" lengthAdjust="spacingAndGlyphs" textLength="44" x="151" y="362.6846">lastName</text><text fill="#000000" font-family="sans-serif" font-size="11" lengthAdjust="spacingAndGlyphs" textLength="61" x="151" y="376.5205">displayName</text><text fill="#000000" font-family="sans-serif" font-size="11" lengthAdjust="spacingAndGlyphs" textLength="53" x="151" y="390.3564">verification</text><text fill="#000000" font-family="sans-serif" font-size="11" lengthAdjust="spacingAndGlyphs" textLength="35" x="151" y="404.1924">partner</text><!--class Tag--><rect fill="#FEFECE" filter="url(#fnautzf)" height="95.3438" style="stroke: #A80036; stroke-width: 1.5;" width="65" x="328.5" y="201.9219"/><ellipse cx="348.9" cy="217.9219" fill="#FFAAAA" rx="11" ry="11" style="stroke: #A80036; stroke-width: 1.0;"/><path d="M347.7594,218.7188 L347.7594,221.2188 L352.0875,221.2188 L352.0875,220.2969 Q352.0875,219.6875 352.3297,219.4219 Q352.5719,219.1563 352.9469,219.1563 Q353.3219,219.1563 353.5563,219.4219 Q353.7906,219.6875 353.7906,220.2969 L353.7906,222.9219 L345.7906,222.9219 Q345.1656,222.9219 344.9078,222.6875 Q344.65,222.4531 344.65,222.0625 Q344.65,221.6875 344.9156,221.4531 Q345.1813,221.2188 345.7906,221.2188 L346.0563,221.2188 L346.0563,214.5625 L345.7906,214.5625 Q345.1656,214.5625 344.9078,214.3281 Q344.65,214.0938 344.65,213.7031 Q344.65,213.3281 344.9078,213.0938 Q345.1656,212.8594 345.7906,212.8594 L353.4156,212.8594 L353.4156,215.4531 Q353.4156,216.0625 353.1891,216.3203 Q352.9625,216.5781 352.5719,216.5781 Q352.1969,216.5781 351.9625,216.3203 Q351.7281,216.0625 351.7281,215.4531 L351.7281,214.5625 L347.7594,214.5625 L347.7594,217.0156 L349.2438,217.0156 Q349.2438,216.3594 349.3688,216.1719 Q349.6344,215.7656 350.1031,215.7656 Q350.4781,215.7656 350.7125,216.0234 Q350.9469,216.2813 350.9469,216.8906 L350.9469,218.8594 Q350.9469,219.4063 350.8219,219.5938 Q350.5563,219.9844 350.1031,219.9844 Q349.6344,219.9844 349.3688,219.5781 Q349.2438,219.3906 349.2438,218.7188 L347.7594,218.7188 Z "/><text fill="#000000" font-family="sans-serif" font-size="12" lengthAdjust="spacingAndGlyphs" textLength="21" x="364.1" y="222.832">Tag</text><line style="stroke: #A80036; stroke-width: 1.5;" x1="329.5" x2="392.5" y1="233.9219" y2="233.9219"/><text fill="#000000" font-family="sans-serif" font-size="11" lengthAdjust="spacingAndGlyphs" text-decoration="underline" textLength="20" x="334.5" y="249.3408">uuid</text><line style="stroke: #000000; stroke-width: 1.0;" x1="334.5" x2="354.5" y1="251.3408" y2="251.3408"/><text fill="#000000" font-family="sans-serif" font-size="11" lengthAdjust="spacingAndGlyphs" text-decoration="line-through" textLength="32" x="334.5" y="263.1768">owner</text><text fill="#000000" font-family="sans-serif" font-size="11" lengthAdjust="spacingAndGlyphs" textLength="22" x="334.5" y="277.0127">label</text><text fill="#000000" font-family="sans-serif" font-size="11" lengthAdjust="spacingAndGlyphs" textLength="53" x="334.5" y="290.8486">foreignUse</text><!--class Invitation--><rect fill="#FEFECE" filter="url(#fnautzf)" height="53.8359" style="stroke: #A80036; stroke-width: 1.5;" width="80" x="321" y="332.4219"/><ellipse cx="336" cy="348.4219" fill="#FFAAAA" rx="11" ry="11" style="stroke: #A80036; stroke-width: 1.0;"/><path d="M334.8594,349.2188 L334.8594,351.7188 L339.1875,351.7188 L339.1875,350.7969 Q339.1875,350.1875 339.4297,349.9219 Q339.6719,349.6563 340.0469,349.6563 Q340.4219,349.6563 340.6563,349.9219 Q340.8906,350.1875 340.8906,350.7969 L340.8906,353.4219 L332.8906,353.4219 Q332.2656,353.4219 332.0078,353.1875 Q331.75,352.9531 331.75,352.5625 Q331.75,352.1875 332.0156,351.9531 Q332.2813,351.7188 332.8906,351.7188 L333.1563,351.7188 L333.1563,345.0625 L332.8906,345.0625 Q332.2656,345.0625 332.0078,344.8281 Q331.75,344.5938 331.75,344.2031 Q331.75,343.8281 332.0078,343.5938 Q332.2656,343.3594 332.8906,343.3594 L340.5156,343.3594 L340.5156,345.9531 Q340.5156,346.5625 340.2891,346.8203 Q340.0625,347.0781 339.6719,347.0781 Q339.2969,347.0781 339.0625,346.8203 Q338.8281,346.5625 338.8281,345.9531 L338.8281,345.0625 L334.8594,345.0625 L334.8594,347.5156 L336.3438,347.5156 Q336.3438,346.8594 336.4688,346.6719 Q336.7344,346.2656 337.2031,346.2656 Q337.5781,346.2656 337.8125,346.5234 Q338.0469,346.7813 338.0469,347.3906 L338.0469,349.3594 Q338.0469,349.9063 337.9219,350.0938 Q337.6563,350.4844 337.2031,350.4844 Q336.7344,350.4844 336.4688,350.0781 Q336.3438,349.8906 336.3438,349.2188 L334.8594,349.2188 Z "/><text fill="#000000" font-family="sans-serif" font-size="12" lengthAdjust="spacingAndGlyphs" textLength="48" x="350" y="353.332">Invitation</text><line style="stroke: #A80036; stroke-width: 1.5;" x1="322" x2="400" y1="364.4219" y2="364.4219"/><text fill="#000000" font-family="sans-serif" font-size="11" lengthAdjust="spacingAndGlyphs" text-decoration="underline" textLength="20" x="327" y="379.8408">uuid</text><line style="stroke: #000000; stroke-width: 1.0;" x1="327" x2="347" y1="381.8408" y2="381.8408"/><!--class Capability--><rect fill="#FEFECE" filter="url(#fnautzf)" height="67.6719" style="stroke: #A80036; stroke-width: 1.5;" width="86" x="318" y="98.4219"/><ellipse cx="333" cy="114.4219" fill="#FFAAAA" rx="11" ry="11" style="stroke: #A80036; stroke-width: 1.0;"/><path d="M331.8594,115.2188 L331.8594,117.7188 L336.1875,117.7188 L336.1875,116.7969 Q336.1875,116.1875 336.4297,115.9219 Q336.6719,115.6563 337.0469,115.6563 Q337.4219,115.6563 337.6563,115.9219 Q337.8906,116.1875 337.8906,116.7969 L337.8906,119.4219 L329.8906,119.4219 Q329.2656,119.4219 329.0078,119.1875 Q328.75,118.9531 328.75,118.5625 Q328.75,118.1875 329.0156,117.9531 Q329.2813,117.7188 329.8906,117.7188 L330.1563,117.7188 L330.1563,111.0625 L329.8906,111.0625 Q329.2656,111.0625 329.0078,110.8281 Q328.75,110.5938 328.75,110.2031 Q328.75,109.8281 329.0078,109.5938 Q329.2656,109.3594 329.8906,109.3594 L337.5156,109.3594 L337.5156,111.9531 Q337.5156,112.5625 337.2891,112.8203 Q337.0625,113.0781 336.6719,113.0781 Q336.2969,113.0781 336.0625,112.8203 Q335.8281,112.5625 335.8281,111.9531 L335.8281,111.0625 L331.8594,111.0625 L331.8594,113.5156 L333.3438,113.5156 Q333.3438,112.8594 333.4688,112.6719 Q333.7344,112.2656 334.2031,112.2656 Q334.5781,112.2656 334.8125,112.5234 Q335.0469,112.7813 335.0469,113.3906 L335.0469,115.3594 Q335.0469,115.9063 334.9219,116.0938 Q334.6563,116.4844 334.2031,116.4844 Q333.7344,116.4844 333.4688,116.0781 Q333.3438,115.8906 333.3438,115.2188 L331.8594,115.2188 Z "/><text fill="#000000" font-family="sans-serif" font-size="12" lengthAdjust="spacingAndGlyphs" textLength="54" x="347" y="119.332">Capability</text><line style="stroke: #A80036; stroke-width: 1.5;" x1="319" x2="403" y1="130.4219" y2="130.4219"/><text fill="#000000" font-family="sans-serif" font-size="11" lengthAdjust="spacingAndGlyphs" textLength="26" x="324" y="145.8408">name</text><text fill="#000000" font-family="sans-serif" font-size="11" lengthAdjust="spacingAndGlyphs" textLength="21" x="324" y="159.6768">type</text><!--class Policy--><rect fill="#FEFECE" filter="url(#fnautzf)" height="67.6719" style="stroke: #A80036; stroke-width: 1.5;" width="64" x="612.5" y="215.4219"/><ellipse cx="627.5" cy="231.4219" fill="#FFAAAA" rx="11" ry="11" style="stroke: #A80036; stroke-width: 1.0;"/><path d="M626.3594,232.2188 L626.3594,234.7188 L630.6875,234.7188 L630.6875,233.7969 Q630.6875,233.1875 630.9297,232.9219 Q631.1719,232.6563 631.5469,232.6563 Q631.9219,232.6563 632.1563,232.9219 Q632.3906,233.1875 632.3906,233.7969 L632.3906,236.4219 L624.3906,236.4219 Q623.7656,236.4219 623.5078,236.1875 Q623.25,235.9531 623.25,235.5625 Q623.25,235.1875 623.5156,234.9531 Q623.7813,234.7188 624.3906,234.7188 L624.6563,234.7188 L624.6563,228.0625 L624.3906,228.0625 Q623.7656,228.0625 623.5078,227.8281 Q623.25,227.5938 623.25,227.2031 Q623.25,226.8281 623.5078,226.5938 Q623.7656,226.3594 624.3906,226.3594 L632.0156,226.3594 L632.0156,228.9531 Q632.0156,229.5625 631.7891,229.8203 Q631.5625,230.0781 631.1719,230.0781 Q630.7969,230.0781 630.5625,229.8203 Q630.3281,229.5625 630.3281,228.9531 L630.3281,228.0625 L626.3594,228.0625 L626.3594,230.5156 L627.8438,230.5156 Q627.8438,229.8594 627.9688,229.6719 Q628.2344,229.2656 628.7031,229.2656 Q629.0781,229.2656 629.3125,229.5234 Q629.5469,229.7813 629.5469,230.3906 L629.5469,232.3594 Q629.5469,232.9063 629.4219,233.0938 Q629.1563,233.4844 628.7031,233.4844 Q628.2344,233.4844 627.9688,233.0781 Q627.8438,232.8906 627.8438,232.2188 L626.3594,232.2188 Z "/><text fill="#000000" font-family="sans-serif" font-size="12" lengthAdjust="spacingAndGlyphs" textLength="32" x="641.5" y="236.332">Policy</text><line style="stroke: #A80036; stroke-width: 1.5;" x1="613.5" x2="675.5" y1="247.4219" y2="247.4219"/><text fill="#000000" font-family="sans-serif" font-size="11" lengthAdjust="spacingAndGlyphs" text-decoration="underline" textLength="20" x="618.5" y="262.8408">uuid</text><line style="stroke: #000000; stroke-width: 1.0;" x1="618.5" x2="638.5" y1="264.8408" y2="264.8408"/><text fill="#000000" font-family="sans-serif" font-size="11" lengthAdjust="spacingAndGlyphs" textLength="28" x="618.5" y="276.6768">policy</text><polygon fill="#FBFB77" filter="url(#fnautzf)" points="569,353.4219,569,379.7734,720,379.7734,720,363.4219,710,353.4219,569,353.4219" style="stroke: #A80036; stroke-width: 1.0;"/><polygon fill="#FBFB77" points="569,353.4219,569,379.7734,720,379.7734,720,363.4219,710,353.4219,648.5,353.4219,644.5,283.4639,640.5,353.4219,569,353.4219" style="stroke: #A80036; stroke-width: 1.0;"/><line style="stroke: #A80036; stroke-width: 1.0;" x1="710" x2="710" y1="353.4219" y2="363.4219"/><line style="stroke: #A80036; stroke-width: 1.0;" x1="720" x2="710" y1="363.4219" y2="363.4219"/><text fill="#000000" font-family="sans-serif" font-size="13" lengthAdjust="spacingAndGlyphs" textLength="130" x="575" y="371.917">policy values: {1,2,3,4}</text><path d="M97.1917,335.4219 C113.138,335.4219 130.365,335.4219 144.991,335.4219 " fill="none" style="stroke: #A80036; stroke-width: 1.0;"/><polygon fill="#A80036" points="84.1825,335.4219,90.1825,339.4219,96.1825,335.4219,90.1825,331.4219,84.1825,335.4219" style="stroke: #A80036; stroke-width: 1.0;"/><text fill="#000000" font-family="sans-serif" font-size="13" lengthAdjust="spacingAndGlyphs" textLength="7" x="92.0521" y="350.4078">1</text><text fill="#000000" font-family="sans-serif" font-size="13" lengthAdjust="spacingAndGlyphs" textLength="7" x="130.1142" y="350.5574">1</text><path d="M231.61,342.0622 C259.707,345.8612 294.475,350.5622 320.741,354.1137 " fill="none" style="stroke: #A80036; stroke-width: 1.0;"/><polygon fill="#A80036" points="218.42,340.2787,223.8301,345.0464,230.3118,341.8862,224.9018,337.1185,218.42,340.2787" style="stroke: #A80036; stroke-width: 1.0;"/><text fill="#000000" font-family="sans-serif" font-size="13" lengthAdjust="spacingAndGlyphs" textLength="7" x="226.1251" y="356.2879">1</text><text fill="#000000" font-family="sans-serif" font-size="13" lengthAdjust="spacingAndGlyphs" textLength="24" x="289.0655" y="368.042">0..N</text><path d="M230.297,312.2638 C261.386,297.2009 301.063,277.9779 328.299,264.7819 " fill="none" style="stroke: #A80036; stroke-width: 1.0;"/><polygon fill="#A80036" points="218.42,318.0185,225.5637,319.0018,229.219,312.7857,222.0753,311.8024,218.42,318.0185" style="stroke: #A80036; stroke-width: 1.0;"/><text fill="#000000" font-family="sans-serif" font-size="13" lengthAdjust="spacingAndGlyphs" textLength="38" x="249" y="281.917">tag_all</text><text fill="#000000" font-family="sans-serif" font-size="13" lengthAdjust="spacingAndGlyphs" textLength="7" x="226.1251" y="329.7844">1</text><text fill="#000000" font-family="sans-serif" font-size="13" lengthAdjust="spacingAndGlyphs" textLength="7" x="313.38" y="283.3878">1</text><path d="M230.743,141.1609 C257.962,139.3199 291.653,137.0429 317.814,135.2739 " fill="none" style="stroke: #A80036; stroke-width: 1.0;"/><polygon fill="#A80036" points="217.568,142.0509,223.8242,145.6369,229.5407,141.2412,223.2844,137.6551,217.568,142.0509" style="stroke: #A80036; stroke-width: 1.0;"/><text fill="#000000" font-family="sans-serif" font-size="13" lengthAdjust="spacingAndGlyphs" textLength="7" x="225.7289" y="156.7585">1</text><text fill="#000000" font-family="sans-serif" font-size="13" lengthAdjust="spacingAndGlyphs" textLength="24" x="286.0535" y="150.3428">1..N</text><path d="M229.058,171.9629 C260.319,190.4559 300.682,214.3329 328.281,230.6589 " fill="none" style="stroke: #A80036; stroke-width: 1.0;"/><polygon fill="#A80036" points="217.568,165.1669,220.6959,171.6643,227.8966,171.2759,224.7686,164.7785,217.568,165.1669" style="stroke: #A80036; stroke-width: 1.0;"/><text fill="#000000" font-family="sans-serif" font-size="13" lengthAdjust="spacingAndGlyphs" textLength="7" x="225.7289" y="184.6422">1</text><text fill="#000000" font-family="sans-serif" font-size="13" lengthAdjust="spacingAndGlyphs" textLength="24" x="296.5949" y="242.3048">1..N</text><path d="M407.088,249.4219 C464.563,249.4219 562.437,249.4219 612.301,249.4219 " fill="none" style="stroke: #A80036; stroke-width: 1.0;"/><polygon fill="#A80036" points="393.744,249.4219,399.744,253.4219,405.744,249.4219,399.744,245.4219,393.744,249.4219" style="stroke: #A80036; stroke-width: 1.0;"/><text fill="#000000" font-family="sans-serif" font-size="13" lengthAdjust="spacingAndGlyphs" textLength="103" x="435" y="245.917">at least tag owner</text><text fill="#000000" font-family="sans-serif" font-size="13" lengthAdjust="spacingAndGlyphs" textLength="7" x="401.6724" y="264.6678">1</text><text fill="#000000" font-family="sans-serif" font-size="13" lengthAdjust="spacingAndGlyphs" textLength="24" x="580.4281" y="264.4025">1..N</text><rect fill="#DDDDDD" height="84.4375" rx="5" ry="5" style="stroke: #000000; stroke-width: 1.0;" width="188" x="8" y="428.9219"/><text fill="#000000" font-family="sans-serif" font-size="14" font-weight="bold" lengthAdjust="spacingAndGlyphs" textLength="53" x="18" y="450.4551">Legend</text><text fill="#000000" font-family="sans-serif" font-size="14" font-weight="bold" lengthAdjust="spacingAndGlyphs" textLength="0" x="117" y="450.4551"/><text fill="#000000" font-family="sans-serif" font-size="14" lengthAdjust="spacingAndGlyphs" textLength="9" x="18" y="468.0645">E</text><text fill="#000000" font-family="sans-serif" font-size="14" lengthAdjust="spacingAndGlyphs" textLength="67" x="113" y="468.0645">&lt;&lt;Entity&gt;&gt;</text><text fill="#000000" font-family="sans-serif" font-size="14" lengthAdjust="spacingAndGlyphs" textLength="67" x="18" y="485.6738">underlined</text><text fill="#000000" font-family="sans-serif" font-size="14" lengthAdjust="spacingAndGlyphs" textLength="73" x="113" y="485.6738">primary key</text><text fill="#000000" font-family="sans-serif" font-size="14" lengthAdjust="spacingAndGlyphs" textLength="27" x="18" y="503.2832">bold</text><text fill="#000000" font-family="sans-serif" font-size="14" lengthAdjust="spacingAndGlyphs" textLength="43" x="113" y="503.2832">unique</text><line style="stroke: #000000; stroke-width: 1.0;" x1="14" x2="190" y1="435.9219" y2="435.9219"/><line style="stroke: #000000; stroke-width: 1.0;" x1="14" x2="190" y1="453.5313" y2="453.5313"/><line style="stroke: #000000; stroke-width: 1.0;" x1="14" x2="190" y1="471.1406" y2="471.1406"/><line style="stroke: #000000; stroke-width: 1.0;" x1="14" x2="190" y1="488.75" y2="488.75"/><line style="stroke: #000000; stroke-width: 1.0;" x1="14" x2="190" y1="506.3594" y2="506.3594"/><line style="stroke: #000000; stroke-width: 1.0;" x1="14" x2="14" y1="435.9219" y2="506.3594"/><line style="stroke: #000000; stroke-width: 1.0;" x1="109" x2="109" y1="435.9219" y2="506.3594"/><line style="stroke: #000000; stroke-width: 1.0;" x1="190" x2="190" y1="435.9219" y2="506.3594"/></g></svg>