<?xml version="1.0" encoding="UTF-8" standalone="no"?><svg xmlns="http://www.w3.org/2000/svg" xmlns:xlink="http://www.w3.org/1999/xlink" contentScriptType="application/ecmascript" contentStyleType="text/css" height="667px" preserveAspectRatio="none" style="width:636px;height:667px;" version="1.1" viewBox="0 0 636 667" width="636px" zoomAndPan="magnify"><defs><filter height="300%" id="fopux7y" width="300%" x="-1" y="-1"><feGaussianBlur result="blurOut" stdDeviation="2.0"/><feColorMatrix in="blurOut" result="blurOut2" type="matrix" values="0 0 0 0 0 0 0 0 0 0 0 0 0 0 0 0 0 0 .4 0"/><feOffset dx="4.0" dy="4.0" in="blurOut2" result="blurOut3"/><feBlend in="SourceGraphic" in2="blurOut3" mode="normal"/></filter></defs><g><text fill="#000000" font-family="sans-serif" font-size="18" lengthAdjust="spacingAndGlyphs" textLength="128" x="258.5" y="18.6855">Qloud Simulator</text><text fill="#000000" font-family="sans-serif" font-size="18" lengthAdjust="spacingAndGlyphs" textLength="203" x="221" y="41.3262">Entity Relationship Model</text><text fill="#000000" font-family="sans-serif" font-size="18" lengthAdjust="spacingAndGlyphs" textLength="0" x="325" y="63.9668"/><!--class Session--><rect fill="#FEFECE" filter="url(#fopux7y)" height="109.1797" style="stroke: #A80036; stroke-width: 1.5;" width="78" x="6" y="75.9219"/><ellipse cx="21" cy="91.9219" fill="#FFAAAA" rx="11" ry="11" style="stroke: #A80036; stroke-width: 1.0;"/><path d="M19.8594,92.7188 L19.8594,95.2188 L24.1875,95.2188 L24.1875,94.2969 Q24.1875,93.6875 24.4297,93.4219 Q24.6719,93.1563 25.0469,93.1563 Q25.4219,93.1563 25.6563,93.4219 Q25.8906,93.6875 25.8906,94.2969 L25.8906,96.9219 L17.8906,96.9219 Q17.2656,96.9219 17.0078,96.6875 Q16.75,96.4531 16.75,96.0625 Q16.75,95.6875 17.0156,95.4531 Q17.2813,95.2188 17.8906,95.2188 L18.1563,95.2188 L18.1563,88.5625 L17.8906,88.5625 Q17.2656,88.5625 17.0078,88.3281 Q16.75,88.0938 16.75,87.7031 Q16.75,87.3281 17.0078,87.0938 Q17.2656,86.8594 17.8906,86.8594 L25.5156,86.8594 L25.5156,89.4531 Q25.5156,90.0625 25.2891,90.3203 Q25.0625,90.5781 24.6719,90.5781 Q24.2969,90.5781 24.0625,90.3203 Q23.8281,90.0625 23.8281,89.4531 L23.8281,88.5625 L19.8594,88.5625 L19.8594,91.0156 L21.3438,91.0156 Q21.3438,90.3594 21.4688,90.1719 Q21.7344,89.7656 22.2031,89.7656 Q22.5781,89.7656 22.8125,90.0234 Q23.0469,90.2813 23.0469,90.8906 L23.0469,92.8594 Q23.0469,93.4063 22.9219,93.5938 Q22.6563,93.9844 22.2031,93.9844 Q21.7344,93.9844 21.4688,93.5781 Q21.3438,93.3906 21.3438,92.7188 L19.8594,92.7188 Z "/><text fill="#000000" font-family="sans-serif" font-size="12" lengthAdjust="spacingAndGlyphs" textLength="46" x="35" y="96.832">Session</text><line style="stroke: #A80036; stroke-width: 1.5;" x1="7" x2="83" y1="107.9219" y2="107.9219"/><text fill="#000000" font-family="sans-serif" font-size="11" lengthAdjust="spacingAndGlyphs" text-decoration="underline" textLength="14" x="12" y="123.3408">sid</text><line style="stroke: #000000; stroke-width: 1.0;" x1="12" x2="26" y1="125.3408" y2="125.3408"/><text fill="#000000" font-family="sans-serif" font-size="11" lengthAdjust="spacingAndGlyphs" textLength="32" x="12" y="137.1768">server</text><text fill="#000000" font-family="sans-serif" font-size="11" lengthAdjust="spacingAndGlyphs" textLength="35" x="12" y="151.0127">partner</text><text fill="#000000" font-family="sans-serif" font-size="11" lengthAdjust="spacingAndGlyphs" textLength="17" x="12" y="164.8486">key</text><text fill="#000000" font-family="sans-serif" font-size="11" lengthAdjust="spacingAndGlyphs" textLength="22" x="12" y="178.6846">user</text><!--class Sensor--><rect fill="#FEFECE" filter="url(#fopux7y)" height="136.8516" style="stroke: #A80036; stroke-width: 1.5;" width="72" x="9" y="219.9219"/><ellipse cx="24" cy="235.9219" fill="#FFAAAA" rx="11" ry="11" style="stroke: #A80036; stroke-width: 1.0;"/><path d="M22.8594,236.7188 L22.8594,239.2188 L27.1875,239.2188 L27.1875,238.2969 Q27.1875,237.6875 27.4297,237.4219 Q27.6719,237.1563 28.0469,237.1563 Q28.4219,237.1563 28.6563,237.4219 Q28.8906,237.6875 28.8906,238.2969 L28.8906,240.9219 L20.8906,240.9219 Q20.2656,240.9219 20.0078,240.6875 Q19.75,240.4531 19.75,240.0625 Q19.75,239.6875 20.0156,239.4531 Q20.2813,239.2188 20.8906,239.2188 L21.1563,239.2188 L21.1563,232.5625 L20.8906,232.5625 Q20.2656,232.5625 20.0078,232.3281 Q19.75,232.0938 19.75,231.7031 Q19.75,231.3281 20.0078,231.0938 Q20.2656,230.8594 20.8906,230.8594 L28.5156,230.8594 L28.5156,233.4531 Q28.5156,234.0625 28.2891,234.3203 Q28.0625,234.5781 27.6719,234.5781 Q27.2969,234.5781 27.0625,234.3203 Q26.8281,234.0625 26.8281,233.4531 L26.8281,232.5625 L22.8594,232.5625 L22.8594,235.0156 L24.3438,235.0156 Q24.3438,234.3594 24.4688,234.1719 Q24.7344,233.7656 25.2031,233.7656 Q25.5781,233.7656 25.8125,234.0234 Q26.0469,234.2813 26.0469,234.8906 L26.0469,236.8594 Q26.0469,237.4063 25.9219,237.5938 Q25.6563,237.9844 25.2031,237.9844 Q24.7344,237.9844 24.4688,237.5781 Q24.3438,237.3906 24.3438,236.7188 L22.8594,236.7188 Z "/><text fill="#000000" font-family="sans-serif" font-size="12" lengthAdjust="spacingAndGlyphs" textLength="40" x="38" y="240.832">Sensor</text><line style="stroke: #A80036; stroke-width: 1.5;" x1="10" x2="80" y1="251.9219" y2="251.9219"/><text fill="#000000" font-family="sans-serif" font-size="11" lengthAdjust="spacingAndGlyphs" text-decoration="underline" textLength="20" x="15" y="267.3408">uuid</text><line style="stroke: #000000; stroke-width: 1.0;" x1="15" x2="35" y1="269.3408" y2="269.3408"/><text fill="#000000" font-family="sans-serif" font-size="11" font-weight="bold" lengthAdjust="spacingAndGlyphs" textLength="27" x="15" y="281.1768">code</text><text fill="#000000" font-family="sans-serif" font-size="11" lengthAdjust="spacingAndGlyphs" textLength="53" x="15" y="295.0127">description</text><text fill="#000000" font-family="sans-serif" font-size="11" lengthAdjust="spacingAndGlyphs" textLength="28" x="15" y="308.8486">model</text><text fill="#000000" font-family="sans-serif" font-size="11" lengthAdjust="spacingAndGlyphs" textLength="59" x="15" y="322.6846">recvIntervall</text><text fill="#000000" font-family="sans-serif" font-size="11" lengthAdjust="spacingAndGlyphs" textLength="44" x="15" y="336.5205">recvTime</text><text fill="#000000" font-family="sans-serif" font-size="11" lengthAdjust="spacingAndGlyphs" textLength="47" x="15" y="350.3564">batteryOk</text><!--class User--><rect fill="#FEFECE" filter="url(#fopux7y)" height="164.5234" style="stroke: #A80036; stroke-width: 1.5;" width="73" x="8.5" y="398.9219"/><ellipse cx="29.8" cy="414.9219" fill="#FFAAAA" rx="11" ry="11" style="stroke: #A80036; stroke-width: 1.0;"/><path d="M28.6594,415.7188 L28.6594,418.2188 L32.9875,418.2188 L32.9875,417.2969 Q32.9875,416.6875 33.2297,416.4219 Q33.4719,416.1563 33.8469,416.1563 Q34.2219,416.1563 34.4563,416.4219 Q34.6906,416.6875 34.6906,417.2969 L34.6906,419.9219 L26.6906,419.9219 Q26.0656,419.9219 25.8078,419.6875 Q25.55,419.4531 25.55,419.0625 Q25.55,418.6875 25.8156,418.4531 Q26.0813,418.2188 26.6906,418.2188 L26.9563,418.2188 L26.9563,411.5625 L26.6906,411.5625 Q26.0656,411.5625 25.8078,411.3281 Q25.55,411.0938 25.55,410.7031 Q25.55,410.3281 25.8078,410.0938 Q26.0656,409.8594 26.6906,409.8594 L34.3156,409.8594 L34.3156,412.4531 Q34.3156,413.0625 34.0891,413.3203 Q33.8625,413.5781 33.4719,413.5781 Q33.0969,413.5781 32.8625,413.3203 Q32.6281,413.0625 32.6281,412.4531 L32.6281,411.5625 L28.6594,411.5625 L28.6594,414.0156 L30.1438,414.0156 Q30.1438,413.3594 30.2688,413.1719 Q30.5344,412.7656 31.0031,412.7656 Q31.3781,412.7656 31.6125,413.0234 Q31.8469,413.2813 31.8469,413.8906 L31.8469,415.8594 Q31.8469,416.4063 31.7219,416.5938 Q31.4563,416.9844 31.0031,416.9844 Q30.5344,416.9844 30.2688,416.5781 Q30.1438,416.3906 30.1438,415.7188 L28.6594,415.7188 Z "/><text fill="#000000" font-family="sans-serif" font-size="12" lengthAdjust="spacingAndGlyphs" textLength="27" x="45.2" y="419.832">User</text><line style="stroke: #A80036; stroke-width: 1.5;" x1="9.5" x2="80.5" y1="430.9219" y2="430.9219"/><text fill="#000000" font-family="sans-serif" font-size="11" lengthAdjust="spacingAndGlyphs" text-decoration="underline" textLength="20" x="14.5" y="446.3408">uuid</text><line style="stroke: #000000; stroke-width: 1.0;" x1="14.5" x2="34.5" y1="448.3408" y2="448.3408"/><text fill="#000000" font-family="sans-serif" font-size="11" font-weight="bold" lengthAdjust="spacingAndGlyphs" textLength="30" x="14.5" y="460.1768">email</text><text fill="#000000" font-family="sans-serif" font-size="11" lengthAdjust="spacingAndGlyphs" textLength="49" x="14.5" y="474.0127">userName</text><text fill="#000000" font-family="sans-serif" font-size="11" lengthAdjust="spacingAndGlyphs" textLength="46" x="14.5" y="487.8486">firstName</text><text fill="#000000" font-family="sans-serif" font-size="11" lengthAdjust="spacingAndGlyphs" textLength="44" x="14.5" y="501.6846">lastName</text><text fill="#000000" font-family="sans-serif" font-size="11" lengthAdjust="spacingAndGlyphs" textLength="61" x="14.5" y="515.5205">displayName</text><text fill="#000000" font-family="sans-serif" font-size="11" lengthAdjust="spacingAndGlyphs" textLength="50" x="14.5" y="529.3564">password</text><text fill="#000000" font-family="sans-serif" font-size="11" lengthAdjust="spacingAndGlyphs" textLength="53" x="14.5" y="543.1924">verification</text><text fill="#000000" font-family="sans-serif" font-size="11" lengthAdjust="spacingAndGlyphs" textLength="35" x="14.5" y="557.0283">partner</text><!--class Tag--><rect fill="#FEFECE" filter="url(#fopux7y)" height="81.5078" style="stroke: #A80036; stroke-width: 1.5;" width="65" x="194.5" y="350.4219"/><ellipse cx="214.9" cy="366.4219" fill="#FFAAAA" rx="11" ry="11" style="stroke: #A80036; stroke-width: 1.0;"/><path d="M213.7594,367.2188 L213.7594,369.7188 L218.0875,369.7188 L218.0875,368.7969 Q218.0875,368.1875 218.3297,367.9219 Q218.5719,367.6563 218.9469,367.6563 Q219.3219,367.6563 219.5563,367.9219 Q219.7906,368.1875 219.7906,368.7969 L219.7906,371.4219 L211.7906,371.4219 Q211.1656,371.4219 210.9078,371.1875 Q210.65,370.9531 210.65,370.5625 Q210.65,370.1875 210.9156,369.9531 Q211.1813,369.7188 211.7906,369.7188 L212.0563,369.7188 L212.0563,363.0625 L211.7906,363.0625 Q211.1656,363.0625 210.9078,362.8281 Q210.65,362.5938 210.65,362.2031 Q210.65,361.8281 210.9078,361.5938 Q211.1656,361.3594 211.7906,361.3594 L219.4156,361.3594 L219.4156,363.9531 Q219.4156,364.5625 219.1891,364.8203 Q218.9625,365.0781 218.5719,365.0781 Q218.1969,365.0781 217.9625,364.8203 Q217.7281,364.5625 217.7281,363.9531 L217.7281,363.0625 L213.7594,363.0625 L213.7594,365.5156 L215.2438,365.5156 Q215.2438,364.8594 215.3688,364.6719 Q215.6344,364.2656 216.1031,364.2656 Q216.4781,364.2656 216.7125,364.5234 Q216.9469,364.7813 216.9469,365.3906 L216.9469,367.3594 Q216.9469,367.9063 216.8219,368.0938 Q216.5563,368.4844 216.1031,368.4844 Q215.6344,368.4844 215.3688,368.0781 Q215.2438,367.8906 215.2438,367.2188 L213.7594,367.2188 Z "/><text fill="#000000" font-family="sans-serif" font-size="12" lengthAdjust="spacingAndGlyphs" textLength="21" x="230.1" y="371.332">Tag</text><line style="stroke: #A80036; stroke-width: 1.5;" x1="195.5" x2="258.5" y1="382.4219" y2="382.4219"/><text fill="#000000" font-family="sans-serif" font-size="11" lengthAdjust="spacingAndGlyphs" text-decoration="underline" textLength="20" x="200.5" y="397.8408">uuid</text><line style="stroke: #000000; stroke-width: 1.0;" x1="200.5" x2="220.5" y1="399.8408" y2="399.8408"/><text fill="#000000" font-family="sans-serif" font-size="11" lengthAdjust="spacingAndGlyphs" textLength="22" x="200.5" y="411.6768">label</text><text fill="#000000" font-family="sans-serif" font-size="11" lengthAdjust="spacingAndGlyphs" textLength="53" x="200.5" y="425.5127">foreignUse</text><!--class Invitation--><rect fill="#FEFECE" filter="url(#fopux7y)" height="53.8359" style="stroke: #A80036; stroke-width: 1.5;" width="80" x="187" y="467.4219"/><ellipse cx="202" cy="483.4219" fill="#FFAAAA" rx="11" ry="11" style="stroke: #A80036; stroke-width: 1.0;"/><path d="M200.8594,484.2188 L200.8594,486.7188 L205.1875,486.7188 L205.1875,485.7969 Q205.1875,485.1875 205.4297,484.9219 Q205.6719,484.6563 206.0469,484.6563 Q206.4219,484.6563 206.6563,484.9219 Q206.8906,485.1875 206.8906,485.7969 L206.8906,488.4219 L198.8906,488.4219 Q198.2656,488.4219 198.0078,488.1875 Q197.75,487.9531 197.75,487.5625 Q197.75,487.1875 198.0156,486.9531 Q198.2813,486.7188 198.8906,486.7188 L199.1563,486.7188 L199.1563,480.0625 L198.8906,480.0625 Q198.2656,480.0625 198.0078,479.8281 Q197.75,479.5938 197.75,479.2031 Q197.75,478.8281 198.0078,478.5938 Q198.2656,478.3594 198.8906,478.3594 L206.5156,478.3594 L206.5156,480.9531 Q206.5156,481.5625 206.2891,481.8203 Q206.0625,482.0781 205.6719,482.0781 Q205.2969,482.0781 205.0625,481.8203 Q204.8281,481.5625 204.8281,480.9531 L204.8281,480.0625 L200.8594,480.0625 L200.8594,482.5156 L202.3438,482.5156 Q202.3438,481.8594 202.4688,481.6719 Q202.7344,481.2656 203.2031,481.2656 Q203.5781,481.2656 203.8125,481.5234 Q204.0469,481.7813 204.0469,482.3906 L204.0469,484.3594 Q204.0469,484.9063 203.9219,485.0938 Q203.6563,485.4844 203.2031,485.4844 Q202.7344,485.4844 202.4688,485.0781 Q202.3438,484.8906 202.3438,484.2188 L200.8594,484.2188 Z "/><text fill="#000000" font-family="sans-serif" font-size="12" lengthAdjust="spacingAndGlyphs" textLength="48" x="216" y="488.332">Invitation</text><line style="stroke: #A80036; stroke-width: 1.5;" x1="188" x2="266" y1="499.4219" y2="499.4219"/><text fill="#000000" font-family="sans-serif" font-size="11" lengthAdjust="spacingAndGlyphs" text-decoration="underline" textLength="20" x="193" y="514.8408">uuid</text><line style="stroke: #000000; stroke-width: 1.0;" x1="193" x2="213" y1="516.8408" y2="516.8408"/><!--class Capability--><rect fill="#FEFECE" filter="url(#fopux7y)" height="67.6719" style="stroke: #A80036; stroke-width: 1.5;" width="86" x="184" y="247.4219"/><ellipse cx="199" cy="263.4219" fill="#FFAAAA" rx="11" ry="11" style="stroke: #A80036; stroke-width: 1.0;"/><path d="M197.8594,264.2188 L197.8594,266.7188 L202.1875,266.7188 L202.1875,265.7969 Q202.1875,265.1875 202.4297,264.9219 Q202.6719,264.6563 203.0469,264.6563 Q203.4219,264.6563 203.6563,264.9219 Q203.8906,265.1875 203.8906,265.7969 L203.8906,268.4219 L195.8906,268.4219 Q195.2656,268.4219 195.0078,268.1875 Q194.75,267.9531 194.75,267.5625 Q194.75,267.1875 195.0156,266.9531 Q195.2813,266.7188 195.8906,266.7188 L196.1563,266.7188 L196.1563,260.0625 L195.8906,260.0625 Q195.2656,260.0625 195.0078,259.8281 Q194.75,259.5938 194.75,259.2031 Q194.75,258.8281 195.0078,258.5938 Q195.2656,258.3594 195.8906,258.3594 L203.5156,258.3594 L203.5156,260.9531 Q203.5156,261.5625 203.2891,261.8203 Q203.0625,262.0781 202.6719,262.0781 Q202.2969,262.0781 202.0625,261.8203 Q201.8281,261.5625 201.8281,260.9531 L201.8281,260.0625 L197.8594,260.0625 L197.8594,262.5156 L199.3438,262.5156 Q199.3438,261.8594 199.4688,261.6719 Q199.7344,261.2656 200.2031,261.2656 Q200.5781,261.2656 200.8125,261.5234 Q201.0469,261.7813 201.0469,262.3906 L201.0469,264.3594 Q201.0469,264.9063 200.9219,265.0938 Q200.6563,265.4844 200.2031,265.4844 Q199.7344,265.4844 199.4688,265.0781 Q199.3438,264.8906 199.3438,264.2188 L197.8594,264.2188 Z "/><text fill="#000000" font-family="sans-serif" font-size="12" lengthAdjust="spacingAndGlyphs" textLength="54" x="213" y="268.332">Capability</text><line style="stroke: #A80036; stroke-width: 1.5;" x1="185" x2="269" y1="279.4219" y2="279.4219"/><text fill="#000000" font-family="sans-serif" font-size="11" lengthAdjust="spacingAndGlyphs" textLength="26" x="190" y="294.8408">name</text><text fill="#000000" font-family="sans-serif" font-size="11" lengthAdjust="spacingAndGlyphs" textLength="21" x="190" y="308.6768">type</text><!--class Policy--><rect fill="#FEFECE" filter="url(#fopux7y)" height="67.6719" style="stroke: #A80036; stroke-width: 1.5;" width="68" x="517.5" y="357.4219"/><ellipse cx="534.3" cy="373.4219" fill="#FFAAAA" rx="11" ry="11" style="stroke: #A80036; stroke-width: 1.0;"/><path d="M533.1594,374.2188 L533.1594,376.7188 L537.4875,376.7188 L537.4875,375.7969 Q537.4875,375.1875 537.7297,374.9219 Q537.9719,374.6563 538.3469,374.6563 Q538.7219,374.6563 538.9563,374.9219 Q539.1906,375.1875 539.1906,375.7969 L539.1906,378.4219 L531.1906,378.4219 Q530.5656,378.4219 530.3078,378.1875 Q530.05,377.9531 530.05,377.5625 Q530.05,377.1875 530.3156,376.9531 Q530.5813,376.7188 531.1906,376.7188 L531.4563,376.7188 L531.4563,370.0625 L531.1906,370.0625 Q530.5656,370.0625 530.3078,369.8281 Q530.05,369.5938 530.05,369.2031 Q530.05,368.8281 530.3078,368.5938 Q530.5656,368.3594 531.1906,368.3594 L538.8156,368.3594 L538.8156,370.9531 Q538.8156,371.5625 538.5891,371.8203 Q538.3625,372.0781 537.9719,372.0781 Q537.5969,372.0781 537.3625,371.8203 Q537.1281,371.5625 537.1281,370.9531 L537.1281,370.0625 L533.1594,370.0625 L533.1594,372.5156 L534.6438,372.5156 Q534.6438,371.8594 534.7688,371.6719 Q535.0344,371.2656 535.5031,371.2656 Q535.8781,371.2656 536.1125,371.5234 Q536.3469,371.7813 536.3469,372.3906 L536.3469,374.3594 Q536.3469,374.9063 536.2219,375.0938 Q535.9563,375.4844 535.5031,375.4844 Q535.0344,375.4844 534.7688,375.0781 Q534.6438,374.8906 534.6438,374.2188 L533.1594,374.2188 Z "/><text fill="#000000" font-family="sans-serif" font-size="12" lengthAdjust="spacingAndGlyphs" textLength="32" x="548.7" y="378.332">Policy</text><line style="stroke: #A80036; stroke-width: 1.5;" x1="518.5" x2="584.5" y1="389.4219" y2="389.4219"/><text fill="#000000" font-family="sans-serif" font-size="11" lengthAdjust="spacingAndGlyphs" textLength="43" x="523.5" y="404.8408">userUuid</text><text fill="#000000" font-family="sans-serif" font-size="11" lengthAdjust="spacingAndGlyphs" textLength="56" x="523.5" y="418.6768">policyValue</text><polygon fill="#FBFB77" filter="url(#fopux7y)" points="476,495.4219,476,521.7734,627,521.7734,627,505.4219,617,495.4219,476,495.4219" style="stroke: #A80036; stroke-width: 1.0;"/><polygon fill="#FBFB77" points="476,495.4219,476,521.7734,627,521.7734,627,505.4219,617,495.4219,555.5,495.4219,551.5,425.4639,547.5,495.4219,476,495.4219" style="stroke: #A80036; stroke-width: 1.0;"/><line style="stroke: #A80036; stroke-width: 1.0;" x1="617" x2="617" y1="495.4219" y2="505.4219"/><line style="stroke: #A80036; stroke-width: 1.0;" x1="627" x2="617" y1="505.4219" y2="505.4219"/><text fill="#000000" font-family="sans-serif" font-size="13" lengthAdjust="spacingAndGlyphs" textLength="130" x="482" y="513.917">policy values: {1,2,3,4}</text><path d="M94.6768,484.9374 C123.566,487.0239 159.71,489.6343 186.762,491.5881 " fill="none" style="stroke: #A80036; stroke-width: 1.0;"/><polygon fill="#A80036" points="81.5622,483.9903,87.2584,488.4121,93.531,484.8548,87.8348,480.4329,81.5622,483.9903" style="stroke: #A80036; stroke-width: 1.0;"/><text fill="#000000" font-family="sans-serif" font-size="13" lengthAdjust="spacingAndGlyphs" textLength="7" x="89.4494" y="499.6476">1</text><text fill="#000000" font-family="sans-serif" font-size="13" lengthAdjust="spacingAndGlyphs" textLength="24" x="155.0895" y="505.8798">0..N</text><path d="M93.2901,457.7769 C125.205,441.8189 166.448,421.1979 194.426,407.2089 " fill="none" style="stroke: #A80036; stroke-width: 1.0;"/><polygon fill="#A80036" points="81.5622,463.6409,88.7176,464.5355,92.2955,458.2746,85.1401,457.38,81.5622,463.6409" style="stroke: #A80036; stroke-width: 1.0;"/><text fill="#000000" font-family="sans-serif" font-size="13" lengthAdjust="spacingAndGlyphs" textLength="38" x="115" y="424.917">tag_all</text><text fill="#000000" font-family="sans-serif" font-size="13" lengthAdjust="spacingAndGlyphs" textLength="7" x="89.4494" y="475.2919">1</text><text fill="#000000" font-family="sans-serif" font-size="13" lengthAdjust="spacingAndGlyphs" textLength="7" x="179.5348" y="425.9997">1</text><path d="M94.251,286.5459 C122.239,285.4569 157.146,284.0999 183.997,283.0549 " fill="none" style="stroke: #A80036; stroke-width: 1.0;"/><polygon fill="#A80036" points="81.1331,287.0559,87.284,290.8197,93.124,286.5896,86.9731,282.8257,81.1331,287.0559" style="stroke: #A80036; stroke-width: 1.0;"/><text fill="#000000" font-family="sans-serif" font-size="13" lengthAdjust="spacingAndGlyphs" textLength="7" x="88.9359" y="301.9063">1</text><text fill="#000000" font-family="sans-serif" font-size="13" lengthAdjust="spacingAndGlyphs" textLength="24" x="151.9184" y="298.0148">1..N</text><path d="M92.4323,314.9919 C124.405,333.2869 166.045,357.1149 194.272,373.2659 " fill="none" style="stroke: #A80036; stroke-width: 1.0;"/><polygon fill="#A80036" points="81.1331,308.5259,84.3544,314.9775,91.5487,314.4854,88.3274,308.0338,81.1331,308.5259" style="stroke: #A80036; stroke-width: 1.0;"/><text fill="#000000" font-family="sans-serif" font-size="13" lengthAdjust="spacingAndGlyphs" textLength="7" x="88.9359" y="327.6032">1</text><text fill="#000000" font-family="sans-serif" font-size="13" lengthAdjust="spacingAndGlyphs" textLength="24" x="162.5844" y="385.0879">1..N</text><path d="M272.623,391.4219 C338.212,391.4219 459.157,391.4219 517.42,391.4219 " fill="none" style="stroke: #A80036; stroke-width: 1.0;"/><polygon fill="#A80036" points="259.51,391.4219,265.51,395.4219,271.51,391.4219,265.51,387.4219,259.51,391.4219" style="stroke: #A80036; stroke-width: 1.0;"/><polygon fill="#FBFB77" filter="url(#fopux7y)" points="305,323.4219,305,382.4219,437,382.4219,437,333.4219,427,323.4219,305,323.4219" style="stroke: #A80036; stroke-width: 1.0;"/><line style="stroke: #A80036; stroke-width: 1.0;" x1="427" x2="427" y1="323.4219" y2="333.4219"/><line style="stroke: #A80036; stroke-width: 1.0;" x1="437" x2="427" y1="333.4219" y2="333.4219"/><text fill="#000000" font-family="sans-serif" font-size="13" lengthAdjust="spacingAndGlyphs" textLength="111" x="311" y="341.917">at least 1:1 relation</text><text fill="#000000" font-family="sans-serif" font-size="13" lengthAdjust="spacingAndGlyphs" textLength="106" x="311" y="358.2686">because of sensor</text><text fill="#000000" font-family="sans-serif" font-size="13" lengthAdjust="spacingAndGlyphs" textLength="34" x="311" y="374.6201">owner</text><text fill="#000000" font-family="sans-serif" font-size="13" lengthAdjust="spacingAndGlyphs" textLength="7" x="267.3872" y="406.7593">1</text><text fill="#000000" font-family="sans-serif" font-size="13" lengthAdjust="spacingAndGlyphs" textLength="24" x="485.5" y="406.3504">1..N</text><rect fill="#DDDDDD" height="84.4375" rx="5" ry="5" style="stroke: #000000; stroke-width: 1.0;" width="188" x="8" y="581.9219"/><text fill="#000000" font-family="sans-serif" font-size="14" font-weight="bold" lengthAdjust="spacingAndGlyphs" textLength="53" x="18" y="603.4551">Legend</text><text fill="#000000" font-family="sans-serif" font-size="14" font-weight="bold" lengthAdjust="spacingAndGlyphs" textLength="0" x="117" y="603.4551"/><text fill="#000000" font-family="sans-serif" font-size="14" lengthAdjust="spacingAndGlyphs" textLength="9" x="18" y="621.0645">E</text><text fill="#000000" font-family="sans-serif" font-size="14" lengthAdjust="spacingAndGlyphs" textLength="67" x="113" y="621.0645">&lt;&lt;Entity&gt;&gt;</text><text fill="#000000" font-family="sans-serif" font-size="14" lengthAdjust="spacingAndGlyphs" textLength="67" x="18" y="638.6738">underlined</text><text fill="#000000" font-family="sans-serif" font-size="14" lengthAdjust="spacingAndGlyphs" textLength="73" x="113" y="638.6738">primary key</text><text fill="#000000" font-family="sans-serif" font-size="14" lengthAdjust="spacingAndGlyphs" textLength="27" x="18" y="656.2832">bold</text><text fill="#000000" font-family="sans-serif" font-size="14" lengthAdjust="spacingAndGlyphs" textLength="43" x="113" y="656.2832">unique</text><line style="stroke: #000000; stroke-width: 1.0;" x1="14" x2="190" y1="588.9219" y2="588.9219"/><line style="stroke: #000000; stroke-width: 1.0;" x1="14" x2="190" y1="606.5313" y2="606.5313"/><line style="stroke: #000000; stroke-width: 1.0;" x1="14" x2="190" y1="624.1406" y2="624.1406"/><line style="stroke: #000000; stroke-width: 1.0;" x1="14" x2="190" y1="641.75" y2="641.75"/><line style="stroke: #000000; stroke-width: 1.0;" x1="14" x2="190" y1="659.3594" y2="659.3594"/><line style="stroke: #000000; stroke-width: 1.0;" x1="14" x2="14" y1="588.9219" y2="659.3594"/><line style="stroke: #000000; stroke-width: 1.0;" x1="109" x2="109" y1="588.9219" y2="659.3594"/><line style="stroke: #000000; stroke-width: 1.0;" x1="190" x2="190" y1="588.9219" y2="659.3594"/></g></svg>