<?xml version="1.0" encoding="UTF-8" standalone="no"?><svg xmlns="http://www.w3.org/2000/svg" xmlns:xlink="http://www.w3.org/1999/xlink" contentScriptType="application/ecmascript" contentStyleType="text/css" height="297px" preserveAspectRatio="none" style="width:415px;height:297px;" version="1.1" viewBox="0 0 415 297" width="415px" zoomAndPan="magnify"><defs><filter height="300%" id="ffuxsva" width="300%" x="-1" y="-1"><feGaussianBlur result="blurOut" stdDeviation="2.0"/><feColorMatrix in="blurOut" result="blurOut2" type="matrix" values="0 0 0 0 0 0 0 0 0 0 0 0 0 0 0 0 0 0 .4 0"/><feOffset dx="4.0" dy="4.0" in="blurOut2" result="blurOut3"/><feBlend in="SourceGraphic" in2="blurOut3" mode="normal"/></filter></defs><g><!--class EventController--><rect fill="#FEFECE" filter="url(#ffuxsva)" height="172.5234" style="stroke: #A80036; stroke-width: 1.5;" width="400" x="6" y="116"/><ellipse cx="159.75" cy="132" fill="#ADD1B2" rx="11" ry="11" style="stroke: #A80036; stroke-width: 1.0;"/><path d="M162.5156,127.875 Q162.6719,127.6563 162.8594,127.5469 Q163.0469,127.4375 163.2656,127.4375 Q163.6406,127.4375 163.875,127.6953 Q164.1094,127.9531 164.1094,128.5625 L164.1094,130.0156 Q164.1094,130.625 163.875,130.8906 Q163.6406,131.1563 163.2656,131.1563 Q162.9219,131.1563 162.7188,130.9531 Q162.5156,130.7656 162.4063,130.25 Q162.3594,129.8906 162.1719,129.7031 Q161.8438,129.3281 161.2344,129.1094 Q160.625,128.8906 160,128.8906 Q159.2344,128.8906 158.6016,129.2188 Q157.9688,129.5469 157.4766,130.2969 Q156.9844,131.0469 156.9844,132.0781 L156.9844,133.1719 Q156.9844,134.4063 157.875,135.2266 Q158.7656,136.0469 160.3594,136.0469 Q161.2969,136.0469 161.9531,135.7969 Q162.3438,135.6406 162.7656,135.2031 Q163.0313,134.9375 163.1797,134.8594 Q163.3281,134.7813 163.5313,134.7813 Q163.8594,134.7813 164.1172,135.0391 Q164.375,135.2969 164.375,135.6406 Q164.375,135.9844 164.0313,136.3906 Q163.5313,136.9688 162.7344,137.2969 Q161.6563,137.75 160.3594,137.75 Q158.8438,137.75 157.6406,137.125 Q156.6563,136.625 155.9688,135.5547 Q155.2813,134.4844 155.2813,133.2031 L155.2813,132.0469 Q155.2813,130.7188 155.8984,129.5703 Q156.5156,128.4219 157.6094,127.8047 Q158.7031,127.1875 159.9375,127.1875 Q160.6719,127.1875 161.3203,127.3516 Q161.9688,127.5156 162.5156,127.875 Z "/><text fill="#000000" font-family="sans-serif" font-size="12" lengthAdjust="spacingAndGlyphs" textLength="84" x="180.25" y="136.9102">EventController</text><line style="stroke: #A80036; stroke-width: 1.5;" x1="7" x2="405" y1="148" y2="148"/><rect fill="none" height="6" style="stroke: #C82930; stroke-width: 1.0;" width="6" x="14" y="157.418"/><text fill="#000000" font-family="sans-serif" font-size="11" lengthAdjust="spacingAndGlyphs" text-decoration="underline" textLength="117" x="26" y="163.4189">EventController instance</text><line style="stroke: #000000; stroke-width: 1.0;" x1="26" x2="143" y1="165.4189" y2="165.4189"/><polygon fill="none" points="17,170.2539,13,176.2539,21,176.2539" style="stroke: #1963A0; stroke-width: 1.0;"/><text fill="#000000" font-family="sans-serif" font-size="11" lengthAdjust="spacingAndGlyphs" text-decoration="underline" textLength="51" x="26" y="177.2549">Logger log</text><line style="stroke: #000000; stroke-width: 1.0;" x1="26" x2="77" y1="179.2549" y2="179.2549"/><polygon fill="none" points="17,184.0898,13,190.0898,21,190.0898" style="stroke: #1963A0; stroke-width: 1.0;"/><text fill="#000000" font-family="sans-serif" font-size="11" lengthAdjust="spacingAndGlyphs" textLength="113" x="26" y="191.0908">EventModel eventModel</text><polygon fill="none" points="17,197.9258,13,203.9258,21,203.9258" style="stroke: #1963A0; stroke-width: 1.0;"/><text fill="#000000" font-family="sans-serif" font-size="11" lengthAdjust="spacingAndGlyphs" textLength="128" x="26" y="204.9268">SensorModel sensorModel</text><line style="stroke: #A80036; stroke-width: 1.5;" x1="7" x2="405" y1="211.3438" y2="211.3438"/><rect fill="#F24D5C" height="6" style="stroke: #C82930; stroke-width: 1.0;" width="6" x="14" y="220.7617"/><text fill="#000000" font-family="sans-serif" font-size="11" lengthAdjust="spacingAndGlyphs" textLength="81" x="26" y="226.7627">EventController()</text><ellipse cx="17" cy="237.5977" fill="#84BE84" rx="3" ry="3" style="stroke: #038048; stroke-width: 1.0;"/><text fill="#000000" font-family="sans-serif" font-size="11" lengthAdjust="spacingAndGlyphs" text-decoration="underline" textLength="125" x="26" y="240.5986">EventController instance()</text><line style="stroke: #000000; stroke-width: 1.0;" x1="26" x2="151" y1="242.5986" y2="242.5986"/><ellipse cx="17" cy="251.4336" fill="#84BE84" rx="3" ry="3" style="stroke: #038048; stroke-width: 1.0;"/><text fill="#000000" font-family="sans-serif" font-size="11" lengthAdjust="spacingAndGlyphs" textLength="358" x="26" y="254.4346">Object susbcribeSensorForEvents(Request request, Response response)</text><ellipse cx="17" cy="265.2695" fill="#84BE84" rx="3" ry="3" style="stroke: #038048; stroke-width: 1.0;"/><text fill="#000000" font-family="sans-serif" font-size="11" lengthAdjust="spacingAndGlyphs" textLength="374" x="26" y="268.2705">Object cancelSensorEventSubcription(Request request, Response response)</text><ellipse cx="17" cy="279.1055" fill="#84BE84" rx="3" ry="3" style="stroke: #038048; stroke-width: 1.0;"/><text fill="#000000" font-family="sans-serif" font-size="11" lengthAdjust="spacingAndGlyphs" textLength="309" x="26" y="282.1064">Object getSensorEvents(Request request, Response response)</text><!--class Controller--><rect fill="#FEFECE" filter="url(#ffuxsva)" height="48" style="stroke: #A80036; stroke-width: 1.5;" width="86" x="163" y="8"/><ellipse cx="178" cy="24" fill="#ADD1B2" rx="11" ry="11" style="stroke: #A80036; stroke-width: 1.0;"/><path d="M180.7656,19.875 Q180.9219,19.6563 181.1094,19.5469 Q181.2969,19.4375 181.5156,19.4375 Q181.8906,19.4375 182.125,19.6953 Q182.3594,19.9531 182.3594,20.5625 L182.3594,22.0156 Q182.3594,22.625 182.125,22.8906 Q181.8906,23.1563 181.5156,23.1563 Q181.1719,23.1563 180.9688,22.9531 Q180.7656,22.7656 180.6563,22.25 Q180.6094,21.8906 180.4219,21.7031 Q180.0938,21.3281 179.4844,21.1094 Q178.875,20.8906 178.25,20.8906 Q177.4844,20.8906 176.8516,21.2188 Q176.2188,21.5469 175.7266,22.2969 Q175.2344,23.0469 175.2344,24.0781 L175.2344,25.1719 Q175.2344,26.4063 176.125,27.2266 Q177.0156,28.0469 178.6094,28.0469 Q179.5469,28.0469 180.2031,27.7969 Q180.5938,27.6406 181.0156,27.2031 Q181.2813,26.9375 181.4297,26.8594 Q181.5781,26.7813 181.7813,26.7813 Q182.1094,26.7813 182.3672,27.0391 Q182.625,27.2969 182.625,27.6406 Q182.625,27.9844 182.2813,28.3906 Q181.7813,28.9688 180.9844,29.2969 Q179.9063,29.75 178.6094,29.75 Q177.0938,29.75 175.8906,29.125 Q174.9063,28.625 174.2188,27.5547 Q173.5313,26.4844 173.5313,25.2031 L173.5313,24.0469 Q173.5313,22.7188 174.1484,21.5703 Q174.7656,20.4219 175.8594,19.8047 Q176.9531,19.1875 178.1875,19.1875 Q178.9219,19.1875 179.5703,19.3516 Q180.2188,19.5156 180.7656,19.875 Z "/><text fill="#000000" font-family="sans-serif" font-size="12" lengthAdjust="spacingAndGlyphs" textLength="54" x="192" y="28.9102">Controller</text><line style="stroke: #A80036; stroke-width: 1.5;" x1="164" x2="248" y1="40" y2="40"/><line style="stroke: #A80036; stroke-width: 1.5;" x1="164" x2="248" y1="48" y2="48"/><path d="M206,76.118 C206,88.351 206,102.117 206,115.93 " fill="none" style="stroke: #A80036; stroke-width: 1.0;"/><polygon fill="none" points="199,76.076,206,56.076,213,76.076,199,76.076" style="stroke: #A80036; stroke-width: 1.0;"/></g></svg>